<svg width="161" height="16" viewBox="0 0 161 16" fill="none" xmlns="http://www.w3.org/2000/svg">
<path d="M0 0.77832H7.0167C9.78699 0.77832 11.2429 2.34994 11.2429 4.51837C11.2429 5.97063 10.5554 7.10458 9.34212 7.6815V7.72129C10.9598 8.21864 11.9102 9.55153 11.9102 11.2624C11.9102 13.5104 10.4341 15.1616 7.58289 15.1616H0V0.77832ZM6.65273 6.60723C7.84577 6.60723 8.39174 5.91095 8.39174 4.99583C8.39174 4.06081 7.94687 3.38442 6.6325 3.38442H2.87139V6.60723H6.65273ZM7.09759 12.5754C8.43218 12.5754 8.97815 11.7995 8.97815 10.8645C8.97815 9.88973 8.31085 9.13376 7.11781 9.13376H2.87139V12.5953H7.09759V12.5754Z" fill="#345C45"/>
<path d="M13.629 6.74668C13.629 2.88727 15.8736 0.5 20.0189 0.5C24.1642 0.5 26.4492 2.90716 26.4492 6.74668V15.1817H23.5778V10.8647H16.4398V15.1817H13.6492V6.74668H13.629ZM23.5778 8.3183V6.74668C23.5778 4.43899 22.405 3.1061 19.9987 3.1061C17.6126 3.1061 16.4398 4.4191 16.4398 6.74668V8.3183H23.5778Z" fill="#345C45"/>
<path d="M28.7745 6.50796C28.7745 2.80769 30.9989 0.5 35.0026 0.5C39.0064 0.5 41.2307 2.80769 41.2307 6.50796V15.1817H38.3593V6.50796C38.3593 4.37931 37.2472 3.1061 35.0026 3.1061C32.7581 3.1061 31.6459 4.35942 31.6459 6.50796V15.1817H28.7745V6.50796Z" fill="#345C45"/>
<path d="M43.1517 7.98011C43.1517 3.66313 46.3669 0.5 50.9368 0.5C54.7586 0.5 57.6502 2.72812 58.4793 6.01061H55.4664C54.7788 4.27984 53.1207 3.12599 50.9368 3.12599C48.025 3.12599 46.0636 5.17507 46.0636 8C46.0636 10.8249 48.025 12.8939 50.9368 12.8939C53.1005 12.8939 54.7586 11.7202 55.4664 9.98939H58.4793C57.6502 13.2719 54.7586 15.5 50.9368 15.5C46.3669 15.4801 43.1517 12.2971 43.1517 7.98011Z" fill="#345C45"/>
<path d="M60.3396 6.74668C60.3396 2.88727 62.5841 0.5 66.7092 0.5C70.8343 0.5 73.1395 2.90716 73.1395 6.74668V15.1817H70.2681V10.8647H63.1301V15.1817H60.3396V6.74668ZM70.2884 8.3183V6.74668C70.2884 4.43899 69.1155 3.1061 66.7092 3.1061C64.3231 3.1061 63.1503 4.4191 63.1503 6.74668V8.3183H70.2884Z" fill="#345C45"/>
<path d="M81.4099 6.74668C81.4099 2.88727 83.6544 0.5 87.7998 0.5C91.9451 0.5 94.2301 2.90716 94.2301 6.74668V15.1817H91.3587V10.8647H84.2206V15.1817H81.4301V6.74668H81.4099ZM91.3384 8.3183V6.74668C91.3384 4.43899 90.1656 3.1061 87.7593 3.1061C85.3732 3.1061 84.2004 4.4191 84.2004 6.74668V8.3183H91.3384Z" fill="#345C45"/>
<path d="M96.8993 0.77832H99.7707V15.1815H96.8993V0.77832Z" fill="#345C45"/>
<path d="M102.784 0.77832H107.98C113.117 0.77832 115.786 3.66293 115.786 7.97991C115.786 12.2969 113.096 15.1815 107.98 15.1815H102.784V0.77832ZM107.98 12.5754C111.357 12.5754 112.874 10.7651 112.874 7.97991C112.874 5.17487 111.357 3.40431 107.98 3.40431H105.655V12.5953H107.98V12.5754Z" fill="#345C45"/>
<path d="M118.051 0.77832H128.849V3.40431H120.922V6.62713H127.554V9.13376H120.922V12.5953H128.849V15.2014H118.051V0.77832Z" fill="#345C45"/>
<path d="M148.18 6.74668C148.18 2.88727 150.424 0.5 154.57 0.5C158.715 0.5 161 2.90716 161 6.74668V15.1817H158.129V10.8647H150.991V15.1817H148.2L148.18 6.74668ZM158.129 8.3183V6.74668C158.129 4.43899 156.956 3.1061 154.549 3.1061C152.163 3.1061 150.991 4.4191 150.991 6.74668V8.3183H158.129Z" fill="#345C45"/>
<path d="M142.902 0.77832L137.362 7.96002L142.963 15.1616H147.088L141.507 7.96002L147.027 0.77832H142.902Z" fill="url(#paint0_linear_247_5466)"/>
<path d="M130.304 0.77832L135.845 7.96002L130.264 15.1616H134.389L139.97 7.96002L134.45 0.77832H130.304Z" fill="#03A64A"/>
<defs>
<linearGradient id="paint0_linear_247_5466" x1="137.362" y1="7.96996" x2="147.088" y2="7.96996" gradientUnits="userSpaceOnUse">
<stop stop-color="#345C45"/>
<stop offset="1" stop-color="#03A64A"/>
</linearGradient>
</defs>
</svg>
