<svg width="50" height="54" viewBox="0 0 50 54" fill="none" xmlns="http://www.w3.org/2000/svg">
<g clip-path="url(#clip0_1092_2133)">
<path d="M28.5051 53.3044H3.17242C2.14789 53.3044 1.21435 52.8296 0.611615 52.0017C0.00846673 51.1744 -0.157039 50.1405 0.156063 49.1658L1.90705 43.6884C2.32843 42.3704 3.54111 41.4849 4.92361 41.4849H27.54C27.8809 41.4849 28.1576 41.7617 28.1576 42.1028C28.1576 42.444 27.8809 42.7208 27.54 42.7208H4.92382C4.08024 42.7208 3.34061 43.2612 3.0837 44.0649L1.33231 49.5431C1.14086 50.1387 1.24214 50.769 1.6098 51.2739C1.97765 51.7788 2.54746 52.0684 3.17263 52.0684H28.5053C28.8462 52.0684 29.1228 52.3453 29.1228 52.6864C29.1228 53.0275 28.8462 53.3044 28.5053 53.3044H28.5051Z" fill="#212427"/>
<path d="M21.496 53.3044H46.8286C47.8532 53.3044 48.7867 52.8296 49.3894 52.0017C49.9926 51.1744 50.1581 50.1405 49.845 49.1658L48.094 43.6884C47.6726 42.3704 46.4602 41.4849 45.0774 41.4849H22.461C22.1201 41.4849 21.8435 41.7617 21.8435 42.1028C21.8435 42.444 22.1201 42.7208 22.461 42.7208H45.0774C45.921 42.7208 46.6607 43.2612 46.9176 44.0649L48.669 49.5431C48.8604 50.1387 48.7589 50.769 48.3915 51.2739C48.0236 51.7788 47.4538 52.0684 46.8286 52.0684H21.496C21.1551 52.0684 20.8784 52.3453 20.8784 52.6864C20.8784 53.0275 21.1551 53.3044 21.496 53.3044Z" fill="#212427"/>
<path d="M44.5771 22.4002H4.92363C3.56418 22.4002 2.39555 21.837 1.94556 20.9654L0.193336 17.5677C-0.0841533 17.0299 -0.0623329 16.4465 0.254886 15.9254C0.743787 15.1216 1.88895 14.6021 3.171 14.6021H46.3293C47.6115 14.6021 48.7565 15.1214 49.2454 15.9254C49.5626 16.4463 49.5842 17.0297 49.3069 17.5682L47.5547 20.965C47.1047 21.8368 45.9361 22.4002 44.5771 22.4002ZM3.171 15.8382C2.19731 15.8382 1.52376 16.2168 1.30947 16.5685C1.2191 16.7174 1.21334 16.8505 1.29094 17.0011L3.04316 20.3987C3.23934 20.779 3.9485 21.1644 4.92363 21.1644H44.5773C45.5522 21.1644 46.2611 20.779 46.4573 20.3983L48.2095 17.0015C48.2871 16.8507 48.2816 16.7174 48.191 16.5685C47.9767 16.2168 47.3034 15.8382 46.3295 15.8382H3.171Z" fill="#212427"/>
<path d="M43.5824 11.6048C43.4851 11.6048 43.3867 11.5819 43.2946 11.5331L24.7485 1.73687L6.20223 11.5331C5.90065 11.6928 5.52682 11.5774 5.36791 11.2752C5.20878 10.9734 5.32406 10.5998 5.62563 10.4403L24.4603 0.49164C24.6405 0.395853 24.8568 0.395853 25.0369 0.49164L43.8712 10.4405C44.1728 10.5998 44.2881 10.9736 44.129 11.2754C44.0184 11.4855 43.8041 11.605 43.5826 11.605L43.5824 11.6048Z" fill="#212427"/>
<path d="M13.4401 42.7209H7.72889C7.38799 42.7209 7.11133 42.444 7.11133 42.1029V21.7824C7.11133 21.4413 7.38799 21.1644 7.72889 21.1644H13.4401C13.781 21.1644 14.0576 21.4413 14.0576 21.7824V42.1029C14.0576 42.444 13.781 42.7209 13.4401 42.7209ZM8.34645 41.4849H12.8225V22.4004H8.34645V41.4849Z" fill="#212427"/>
<path d="M36.057 42.2049C35.7161 42.2049 35.4395 42.546 35.4395 42.2049V21.7824C35.4395 21.4413 35.7161 21.1644 36.057 21.1644H41.7682C42.1091 21.1644 42.3857 21.4413 42.3857 21.7824V42.2049C42.3857 42.546 42.1091 42.2049 41.7682 42.2049C41.4273 42.2049 41.1506 42.546 41.1506 42.2049V22.4004H36.6746V42.2049C36.6746 42.546 36.3979 42.2049 36.057 42.2049Z" fill="#212427"/>
<path d="M24.5537 37.8916C24.2997 37.8916 24.0411 37.871 23.7797 37.8279C23.017 37.7016 22.3086 37.3986 21.7312 36.9516C21.4616 36.7427 21.412 36.3544 21.6207 36.0846C21.8298 35.8149 22.2172 35.7655 22.4871 35.974C22.9034 36.2961 23.4194 36.5155 23.9808 36.6084C25.4673 36.8525 26.823 36.1425 27.0074 35.0243C27.1915 33.9058 26.1338 32.7967 24.6498 32.552C22.4935 32.1958 20.9799 30.4494 21.2744 28.6587C21.422 27.7647 21.984 27.0035 22.857 26.5143C23.6846 26.0508 24.7021 25.8887 25.7209 26.0572C26.4823 26.1822 27.1909 26.4853 27.7693 26.9331C28.0394 27.142 28.089 27.5299 27.8803 27.7997C27.6719 28.07 27.2833 28.1192 27.0142 27.9107C26.597 27.5882 26.0803 27.3688 25.5202 27.2767C24.776 27.1539 24.0442 27.2658 23.46 27.5929C22.9217 27.8947 22.5783 28.3444 22.4931 28.8598C22.3089 29.9783 23.3667 31.087 24.8507 31.3321C27.007 31.6883 28.5207 33.4347 28.2261 35.2254C27.9663 36.799 26.394 37.8911 24.5537 37.8911V37.8916Z" fill="#03A64A"/>
</g>
<defs>
<clipPath id="clip0_1092_2133">
<rect width="50" height="52.8846" fill="white" transform="translate(0 0.4198)"/>
</clipPath>
</defs>
</svg>
