<svg width="40" height="40" viewBox="0 0 40 40" fill="none" xmlns="http://www.w3.org/2000/svg">
<g clip-path="url(#clip0_865_8307)">
<path d="M39.4887 39.2593H4.68761C2.10297 39.2593 0 37.1587 0 34.577V4.6821C0 2.1004 2.10297 0 4.68761 0H35.3127C37.8974 0 40 2.1004 40 4.6821V38.7485C40 39.0304 39.7709 39.2593 39.4887 39.2593C39.2064 39.2593 38.9773 39.0304 38.9773 38.7485V4.6821C38.9773 2.66359 37.3334 1.02151 35.3127 1.02151H4.68761C2.6668 1.02151 1.02268 2.66359 1.02268 4.6821V34.577C1.02268 36.5955 2.6668 38.2378 4.68761 38.2378H39.4887C39.7709 38.2378 40 38.4666 40 38.7485C40 39.0304 39.7709 39.2593 39.4887 39.2593Z" fill="#212427"/>
<path d="M28.6436 10.756H11.359C11.0767 10.756 10.8477 10.5274 10.8477 10.2453V7.11671C10.8477 6.83461 11.0767 6.60596 11.359 6.60596H28.6436C28.9259 6.60596 29.155 6.83461 29.155 7.11671V10.2453C29.155 10.5274 28.9259 10.756 28.6436 10.756ZM11.8703 9.73451H28.1323V7.62747H11.8703V9.73451Z" fill="#212427"/>
<path d="M10.6341 32.6557C6.53011 32.6557 3.19141 29.3208 3.19141 25.2218C3.19141 21.1228 6.53011 17.7876 10.6341 17.7876C14.7381 17.7876 18.0765 21.1225 18.0765 25.2218C18.0765 29.3211 14.7378 32.6557 10.6341 32.6557ZM10.6341 18.8091C7.09394 18.8091 4.21408 21.6857 4.21408 25.2218C4.21408 28.758 7.09412 31.6342 10.6341 31.6342C14.1741 31.6342 17.0538 28.7576 17.0538 25.2218C17.0538 21.686 14.1738 18.8091 10.6341 18.8091Z" fill="#212427"/>
<path d="M15.5303 30.6232C15.3994 30.6232 15.2687 30.5734 15.1688 30.4736L10.2724 25.5829C10.1766 25.4872 10.1226 25.3572 10.1226 25.2218V18.2984C10.1226 18.0162 10.3516 17.7876 10.6339 17.7876C10.9162 17.7876 11.1452 18.0162 11.1452 18.2984V25.0104L15.8918 29.7515C16.0916 29.9511 16.0916 30.2742 15.8918 30.4738C15.7919 30.5735 15.6612 30.6234 15.5303 30.6234V30.6232Z" fill="#212427"/>
<path d="M33.3429 32.0983C33.0607 32.0983 32.8316 31.8695 32.8316 31.5875V19.3651H30.3881V31.5875C30.3881 31.8695 30.159 32.0983 29.8767 32.0983H26.4105C26.1283 32.0983 25.8992 31.8695 25.8992 31.5875V26.6409H23.4557V31.5875C23.4557 31.8695 23.2266 32.0983 22.9443 32.0983H19.4781C19.1959 32.0983 18.9668 31.8695 18.9668 31.5875C18.9668 31.3056 19.1959 31.0768 19.4781 31.0768H22.433V26.1301C22.433 25.8482 22.6621 25.6193 22.9443 25.6193H26.4105C26.6928 25.6193 26.9219 25.8482 26.9219 26.1301V31.0768H29.3654V18.8544C29.3654 18.5723 29.5945 18.3436 29.8767 18.3436H33.3429C33.6252 18.3436 33.8543 18.5723 33.8543 18.8544V31.5875C33.8543 31.8695 33.6252 32.0983 33.3429 32.0983Z" fill="#03A64A"/>
</g>
<defs>
<clipPath id="clip0_865_8307">
<rect width="40" height="39.2593" fill="white"/>
</clipPath>
</defs>
</svg>
