<svg width="57" height="46" viewBox="0 0 57 46" fill="none" xmlns="http://www.w3.org/2000/svg">
<g clip-path="url(#clip0_348_3108)">
<path d="M24.3174 40.105H6.37423C2.86087 40.105 0 37.2484 0 33.7357V6.37351C0 2.85867 2.86087 0 6.37423 0H50.6258C54.1412 0 57 2.85867 57 6.37351V30.6346C57 30.9815 56.7198 31.2615 56.3726 31.2615C56.0255 31.2615 55.7452 30.9815 55.7452 30.6346V6.37351C55.7452 3.55036 53.449 1.2538 50.6258 1.2538H6.37423C3.551 1.2538 1.25477 3.55036 1.25477 6.37351V33.7357C1.25477 36.5568 3.551 38.8512 6.37423 38.8512H24.3174C24.6646 38.8512 24.9448 39.1312 24.9448 39.4781C24.9448 39.825 24.6646 40.105 24.3174 40.105Z" fill="#43525D"/>
<path d="M56.3726 9.32851H0.627385C0.280232 9.32851 0 9.0485 0 8.70161C0 8.35472 0.280232 8.07471 0.627385 8.07471H56.3726C56.7198 8.07471 57 8.35472 57 8.70161C57 9.0485 56.7198 9.32851 56.3726 9.32851Z" fill="#43525D"/>
<path d="M56.3726 15.5287H0.627385C0.280232 15.5287 0 15.2487 0 14.9018C0 14.5549 0.280232 14.2749 0.627385 14.2749H56.3726C56.7198 14.2749 57 14.5549 57 14.9018C57 15.2487 56.7198 15.5287 56.3726 15.5287Z" fill="#43525D"/>
<path d="M11.2009 33.489C9.05311 33.489 7.30688 31.742 7.30688 29.598C7.30688 27.454 9.0552 25.707 11.2009 25.707C13.3465 25.707 15.0948 27.454 15.0948 29.598C15.0948 31.742 13.3465 33.489 11.2009 33.489ZM11.2009 26.9587C9.74532 26.9587 8.56165 28.1415 8.56165 29.5959C8.56165 31.0503 9.74532 32.2331 11.2009 32.2331C12.6564 32.2331 13.8401 31.0503 13.8401 29.5959C13.8401 28.1415 12.6564 26.9587 11.2009 26.9587Z" fill="#43525D"/>
<path d="M17.893 33.4848C17.5605 33.4848 17.2824 33.2236 17.2677 32.8871C17.251 32.5423 17.5187 32.2477 17.8637 32.231C19.2733 32.162 20.3795 31.0064 20.3795 29.598C20.3795 28.1895 19.2753 27.0318 17.8637 26.965C17.5166 26.9483 17.251 26.6536 17.2677 26.3088C17.2844 25.964 17.5772 25.6903 17.9244 25.7133C20.0052 25.8136 21.6343 27.5208 21.6343 29.6001C21.6343 31.6793 20.0052 33.3865 17.9244 33.4869C17.9139 33.4869 17.9035 33.4869 17.893 33.4869V33.4848Z" fill="#43525D"/>
<path d="M40.7905 46.0002C34.0147 46.0002 28.5 40.4919 28.5 33.7213C28.5 26.9508 34.0126 21.4424 40.7905 21.4424C47.5683 21.4424 53.0788 26.9508 53.0788 33.7213C53.0788 40.4919 47.5662 46.0002 40.7905 46.0002ZM40.7905 42.1427C41.1376 42.1427 41.4199 42.4248 41.4199 42.7717V44.7234L41.6625 44.7046C47.012 44.2846 51.3619 39.936 51.7822 34.5927L51.8011 34.3503H49.8478C49.5007 34.3503 49.2183 34.0682 49.2183 33.7213C49.2183 33.3744 49.5007 33.0923 49.8478 33.0923H51.8011L51.7822 32.8499C51.3326 27.1576 46.5059 22.7004 40.7905 22.7004C35.075 22.7004 30.2462 27.1597 29.7987 32.8499L29.7799 33.0923H31.7331C32.0803 33.0923 32.3626 33.3744 32.3626 33.7213C32.3626 34.0682 32.0803 34.3503 31.7331 34.3503H29.7799L29.7987 34.5927C30.219 39.9381 34.571 44.2846 39.9184 44.7046L40.161 44.7234V42.7717C40.161 42.4248 40.4433 42.1427 40.7905 42.1427Z" fill="#43525D"/>
<path d="M45.8012 38.5612C45.6527 38.5612 45.5105 38.509 45.3955 38.4128L40.3848 34.2021C40.2426 34.083 40.161 33.9054 40.161 33.7215V26.1632C40.161 25.8163 40.4433 25.5342 40.7905 25.5342C41.1376 25.5342 41.42 25.8163 41.42 26.1632V33.429L46.2069 37.4495C46.3345 37.5582 46.4139 37.7086 46.4286 37.8758C46.4432 38.043 46.3909 38.206 46.2843 38.3355C46.1651 38.4776 45.9894 38.5591 45.8012 38.5591V38.5612Z" fill="#03A64A"/>
</g>
<defs>
<clipPath id="clip0_348_3108">
<rect width="57" height="46" fill="white"/>
</clipPath>
</defs>
</svg>
