<svg width="50" height="38" viewBox="0 0 50 38" fill="none" xmlns="http://www.w3.org/2000/svg">
<g clip-path="url(#clip0_1092_2144)">
<path d="M48.8993 35.1388H5.59143C2.50954 35.1388 0 32.6659 0 29.6249V5.93736C0 2.89456 2.50954 0.4198 5.59143 0.4198H44.4086C47.4923 0.4198 50 2.89456 50 5.93736V34.5961C50 34.8964 49.7542 35.1388 49.4497 35.1388C49.1451 35.1388 48.8993 34.8964 48.8993 34.5961V5.93736C48.8993 3.49335 46.8851 1.50522 44.4086 1.50522H5.59143C3.11491 1.50522 1.10068 3.49335 1.10068 5.93736V29.6249C1.10068 32.0671 3.11491 34.0534 5.59143 34.0534H48.8993C49.2038 34.0534 49.4497 34.2958 49.4497 34.5961C49.4497 34.8964 49.2038 35.1388 48.8993 35.1388Z" fill="#212427"/>
<path d="M49.4497 8.49533H0.550338C0.245817 8.49533 0 8.25292 0 7.95262C0 7.65232 0.245817 7.40991 0.550338 7.40991H49.4497C49.7542 7.40991 50 7.65232 50 7.95262C50 8.25292 49.7542 8.49533 49.4497 8.49533Z" fill="#03A64A"/>
<path d="M49.4497 13.8628H0.550338C0.245817 13.8628 0 13.6204 0 13.3201C0 13.0198 0.245817 12.7773 0.550338 12.7773H49.4497C49.7542 12.7773 50 13.0198 50 13.3201C50 13.6204 49.7542 13.8628 49.4497 13.8628Z" fill="#03A64A"/>
<path d="M9.82543 29.4114C7.94144 29.4114 6.40967 27.8991 6.40967 26.043C6.40967 24.1869 7.94328 22.6746 9.82543 22.6746C11.7076 22.6746 13.2412 24.1869 13.2412 26.043C13.2412 27.8991 11.7076 29.4114 9.82543 29.4114ZM9.82543 23.7582C8.54865 23.7582 7.51034 24.7821 7.51034 26.0412C7.51034 27.3003 8.54865 28.3242 9.82543 28.3242C11.1022 28.3242 12.1405 27.3003 12.1405 26.0412C12.1405 24.7821 11.1022 23.7582 9.82543 23.7582Z" fill="#212427"/>
<path d="M15.6956 29.4078C15.404 29.4078 15.16 29.1817 15.1471 28.8904C15.1325 28.5919 15.3673 28.3369 15.67 28.3224C16.9064 28.2627 17.8768 27.2623 17.8768 26.043C17.8768 24.8237 16.9082 23.8215 15.67 23.7636C15.3654 23.7491 15.1325 23.4941 15.1471 23.1956C15.1618 22.8971 15.4186 22.6601 15.7232 22.68C17.5484 22.7668 18.9775 24.2448 18.9775 26.0448C18.9775 27.8448 17.5484 29.3228 15.7232 29.4096C15.714 29.4096 15.7048 29.4096 15.6956 29.4096V29.4078Z" fill="#212427"/>
</g>
<defs>
<clipPath id="clip0_1092_2144">
<rect width="50" height="37.069" fill="white" transform="translate(0 0.4198)"/>
</clipPath>
</defs>
</svg>
