<svg width="57" height="46" viewBox="0 0 57 46" fill="none" xmlns="http://www.w3.org/2000/svg">
<g clip-path="url(#clip0_348_3097)">
<path d="M24.3174 40.1087H6.37423C2.86087 40.1087 0 37.2518 0 33.7388V6.37409C0 2.85893 2.86087 0 6.37423 0H50.6258C54.1412 0 57 2.85893 57 6.37409V30.6374C57 30.9843 56.7198 31.2644 56.3726 31.2644C56.0255 31.2644 55.7452 30.9843 55.7452 30.6374V6.37409C55.7452 3.55068 53.449 1.25392 50.6258 1.25392H6.37423C3.551 1.25392 1.25477 3.55068 1.25477 6.37409V33.7388C1.25477 36.5601 3.551 38.8548 6.37423 38.8548H24.3174C24.6646 38.8548 24.9448 39.1348 24.9448 39.4817C24.9448 39.8286 24.6646 40.1087 24.3174 40.1087Z" fill="#43525D"/>
<path d="M56.3726 9.32911H0.627385C0.280232 9.32911 0 9.04907 0 8.70215C0 8.35524 0.280232 8.0752 0.627385 8.0752H56.3726C56.7198 8.0752 57 8.35524 57 8.70215C57 9.04907 56.7198 9.32911 56.3726 9.32911Z" fill="#43525D"/>
<path d="M56.3726 15.5298H0.627385C0.280232 15.5298 0 15.2498 0 14.9028C0 14.5559 0.280232 14.2759 0.627385 14.2759H56.3726C56.7198 14.2759 57 14.5559 57 14.9028C57 15.2498 56.7198 15.5298 56.3726 15.5298Z" fill="#43525D"/>
<path d="M11.2009 33.4921C9.05311 33.4921 7.30688 31.745 7.30688 29.6008C7.30688 27.4566 9.0552 25.7095 11.2009 25.7095C13.3465 25.7095 15.0948 27.4566 15.0948 29.6008C15.0948 31.745 13.3465 33.4921 11.2009 33.4921ZM11.2009 26.9613C9.74532 26.9613 8.56165 28.1442 8.56165 29.5987C8.56165 31.0533 9.74532 32.2361 11.2009 32.2361C12.6564 32.2361 13.8401 31.0533 13.8401 29.5987C13.8401 28.1442 12.6564 26.9613 11.2009 26.9613Z" fill="#43525D"/>
<path d="M17.893 33.4879C17.5605 33.4879 17.2824 33.2267 17.2677 32.8902C17.251 32.5454 17.5187 32.2507 17.8637 32.234C19.2733 32.165 20.3795 31.0093 20.3795 29.6008C20.3795 28.1922 19.2753 27.0344 17.8637 26.9675C17.5166 26.9508 17.251 26.6561 17.2677 26.3113C17.2844 25.9665 17.5772 25.6927 17.9244 25.7157C20.0052 25.816 21.6343 27.5234 21.6343 29.6028C21.6343 31.6823 20.0052 33.3897 17.9244 33.49C17.9139 33.49 17.9035 33.49 17.893 33.49V33.4879Z" fill="#43525D"/>
<path d="M40.3429 39.3833C39.9142 39.3833 39.5106 39.2162 39.2074 38.9131L36.1896 35.8954C36.0746 35.7804 36.0077 35.6216 36.0077 35.4586C36.0077 35.2956 36.0725 35.1367 36.1896 35.0218L37.9066 33.3081C38.1492 33.0678 38.5402 33.0678 38.7807 33.3081L40.3408 34.8671L44.3477 30.863C44.4627 30.748 44.6217 30.6812 44.7848 30.6812C44.9479 30.6812 45.1069 30.7459 45.2219 30.863L46.9367 32.5767C47.1793 32.8191 47.1793 33.2099 46.9367 33.4502L41.4743 38.911C41.1711 39.2141 40.7675 39.3813 40.3387 39.3813L40.3429 39.3833ZM37.503 35.4607L40.0836 38.0396C40.2216 38.1775 40.4642 38.1775 40.6043 38.0396L45.6297 33.0155L44.789 32.1754L40.7821 36.1796C40.5395 36.422 40.1484 36.422 39.9079 36.1796L38.3457 34.6185L37.503 35.4586V35.4607Z" fill="#03A64A"/>
<path d="M48.7707 45.9999C48.547 45.9999 48.3274 45.933 48.1413 45.8035L43.7245 42.7732H33.862C32.4922 42.7732 31.3796 41.6593 31.3796 40.2925V29.6237C31.3796 28.2549 32.4922 27.1431 33.862 27.1431H49.2706C50.6404 27.1431 51.7529 28.2549 51.7529 29.6237V40.3134C51.7529 41.4649 50.9582 42.4325 49.8896 42.7V44.8839C49.8896 45.1932 49.7662 45.4795 49.5445 45.6906C49.3354 45.8891 49.0614 45.9999 48.7728 45.9999H48.7707ZM33.8599 28.3803C33.174 28.3803 32.6135 28.9383 32.6135 29.6258V40.2946C32.6135 40.9801 33.1719 41.5401 33.8599 41.5401H43.9148C44.0403 41.5401 44.1616 41.5778 44.264 41.6488L48.6495 44.6582V42.1587C48.6495 41.8181 48.9255 41.5401 49.2685 41.5401C49.9649 41.5401 50.5149 40.9905 50.5149 40.3155V29.6258C50.5149 28.9403 49.9565 28.3803 49.2685 28.3803H33.8599Z" fill="#43525D"/>
</g>
<defs>
<clipPath id="clip0_348_3097">
<rect width="57" height="46" fill="white"/>
</clipPath>
</defs>
</svg>
