<svg width="58" height="43" viewBox="0 0 58 43" fill="none" xmlns="http://www.w3.org/2000/svg">
<g clip-path="url(#clip0_348_3081)">
<path d="M24.7441 40.2741H6.48606C2.91107 40.2741 0 37.4054 0 33.8779V6.40037C0 2.87072 2.91107 0 6.48606 0H51.5139C55.0911 0 58 2.87072 58 6.40037V30.7637C58 31.1121 57.7149 31.3933 57.3616 31.3933C57.0084 31.3933 56.7232 31.1121 56.7232 30.7637V6.40037C56.7232 3.56532 54.3867 1.25909 51.5139 1.25909H6.48606C3.6133 1.25909 1.27678 3.56532 1.27678 6.40037V33.8779C1.27678 36.7108 3.6133 39.015 6.48606 39.015H24.7441C25.0973 39.015 25.3824 39.2962 25.3824 39.6445C25.3824 39.9929 25.0973 40.2741 24.7441 40.2741Z" fill="#43525D"/>
<path d="M57.3616 9.36749H0.638392C0.285148 9.36749 0 9.08629 0 8.73794C0 8.3896 0.285148 8.1084 0.638392 8.1084H57.3616C57.7149 8.1084 58 8.3896 58 8.73794C58 9.08629 57.7149 9.36749 57.3616 9.36749Z" fill="#43525D"/>
<path d="M57.3616 15.5936H0.638392C0.285148 15.5936 0 15.3124 0 14.964C0 14.6157 0.285148 14.3345 0.638392 14.3345H57.3616C57.7149 14.3345 58 14.6157 58 14.964C58 15.3124 57.7149 15.5936 57.3616 15.5936Z" fill="#43525D"/>
<path d="M11.3975 33.6302C9.21204 33.6302 7.43518 31.8758 7.43518 29.7228C7.43518 27.5698 9.21417 25.8154 11.3975 25.8154C13.5808 25.8154 15.3597 27.5698 15.3597 29.7228C15.3597 31.8758 13.5808 33.6302 11.3975 33.6302ZM11.3975 27.0724C9.9164 27.0724 8.71196 28.2602 8.71196 29.7207C8.71196 31.1813 9.9164 32.369 11.3975 32.369C12.8785 32.369 14.083 31.1813 14.083 29.7207C14.083 28.2602 12.8785 27.0724 11.3975 27.0724Z" fill="#43525D"/>
<path d="M18.207 33.6259C17.8686 33.6259 17.5856 33.3636 17.5707 33.0258C17.5537 32.6795 17.8261 32.3836 18.1772 32.3668C19.6114 32.2976 20.7371 31.1371 20.7371 29.7227C20.7371 28.3084 19.6136 27.1458 18.1772 27.0787C17.8239 27.0619 17.5537 26.766 17.5707 26.4197C17.5877 26.0735 17.8856 25.7986 18.2389 25.8217C20.3562 25.9224 22.0139 27.6369 22.0139 29.7248C22.0139 31.8128 20.3562 33.5273 18.2389 33.628C18.2283 33.628 18.2176 33.628 18.207 33.628V33.6259Z" fill="#43525D"/>
<path d="M50.1499 27.2553H49.071V26.2858C49.071 25.9374 48.7859 25.6562 48.4327 25.6562C48.0794 25.6562 47.7943 25.9374 47.7943 26.2858V27.2553H44.979V26.2858C44.979 25.9374 44.6938 25.6562 44.3406 25.6562C43.9873 25.6562 43.7022 25.9374 43.7022 26.2858V27.2553H40.8869V26.2858C40.8869 25.9374 40.6017 25.6562 40.2485 25.6562C39.8952 25.6562 39.6101 25.9374 39.6101 26.2858V27.2553H36.7948V26.2858C36.7948 25.9374 36.5096 25.6562 36.1564 25.6562C35.8031 25.6562 35.518 25.9374 35.518 26.2858V27.2553H34.4391C33.0538 27.2553 31.9281 28.3633 31.9281 29.7315V40.5261C31.9281 41.8922 33.0517 43.0023 34.4391 43.0023H50.1499C51.5352 43.0023 52.6609 41.8943 52.6609 40.5261V29.7315C52.6609 28.3654 51.5374 27.2553 50.1499 27.2553ZM51.3841 40.5261C51.3841 41.1976 50.8309 41.7432 50.1499 41.7432H34.4391C33.7582 41.7432 33.2049 41.1976 33.2049 40.5261V29.7315C33.2049 29.06 33.7582 28.5144 34.4391 28.5144H35.518V29.2321C35.518 29.5804 35.8031 29.8616 36.1564 29.8616C36.5096 29.8616 36.7948 29.5804 36.7948 29.2321V28.5144H39.6101V29.2321C39.6101 29.5804 39.8952 29.8616 40.2485 29.8616C40.6017 29.8616 40.8869 29.5804 40.8869 29.2321V28.5144H43.7022V29.2321C43.7022 29.5804 43.9873 29.8616 44.3406 29.8616C44.6938 29.8616 44.979 29.5804 44.979 29.2321V28.5144H47.7943V29.2321C47.7943 29.5804 48.0794 29.8616 48.4327 29.8616C48.7859 29.8616 49.071 29.5804 49.071 29.2321V28.5144H50.1499C50.8309 28.5144 51.3841 29.06 51.3841 29.7315V40.5261Z" fill="#43525D"/>
<path d="M42.5382 32.2981C42.2999 32.2016 42.0254 32.2541 41.8424 32.4345L39.2739 34.9674C39.0249 35.2129 39.0249 35.6116 39.2739 35.8572C39.5229 36.1027 39.9272 36.1027 40.1761 35.8572L41.6551 34.3987V38.8853C41.6551 39.2336 41.9402 39.5148 42.2935 39.5148C42.6467 39.5148 42.9319 39.2336 42.9319 38.8853V32.8794C42.9319 32.6255 42.7765 32.3947 42.5382 32.2981Z" fill="#03A64A"/>
</g>
<defs>
<clipPath id="clip0_348_3081">
<rect width="58" height="43" fill="white"/>
</clipPath>
</defs>
</svg>
