<svg width="74" height="59" viewBox="0 0 74 59" fill="none" xmlns="http://www.w3.org/2000/svg">
<g clip-path="url(#clip0_348_2697)">
<path d="M9.53327 13.0069C11.4204 13.0069 12.9545 14.5354 12.9545 16.4117C12.9545 18.2879 11.4186 19.8181 9.53327 19.8181C7.64793 19.8181 6.11205 18.2914 6.11205 16.4117C6.11205 14.5319 7.64793 13.0069 9.53327 13.0069ZM9.53327 11.2681C6.68342 11.2681 4.36475 13.5756 4.36475 16.4117C4.36475 19.2478 6.68342 21.557 9.53327 21.557C12.3831 21.557 14.7018 19.2495 14.7018 16.4117C14.7018 13.5738 12.3831 11.2681 9.53327 11.2681Z" fill="#43525D"/>
<path d="M12.1368 24.7965C13.0733 24.7965 13.954 25.1599 14.6162 25.8189L18.6857 29.867C18.8953 30.0757 19.1871 30.18 19.4772 30.18C19.7672 30.18 20.059 30.0757 20.2687 29.867L22.2589 27.8865C22.4528 27.6917 22.7132 27.5856 22.9823 27.5856C23.2514 27.5856 23.5292 27.6917 23.7581 27.9212C23.9538 28.116 24.0621 28.3751 24.0621 28.6516C24.0621 28.9281 23.9538 29.1871 23.7581 29.3836L21.3485 31.7815C20.6881 32.4388 19.9996 32.7953 19.3584 32.7953C18.9041 32.7953 18.4742 32.6162 18.0951 32.2406L17.7456 31.8963C16.7339 30.8947 15.9861 30.154 14.8643 29.0533C14.6511 28.8429 14.3663 28.7333 14.0798 28.7333C13.9347 28.7333 13.788 28.7611 13.6482 28.8202C13.2323 28.9941 12.9615 29.3993 12.9615 29.8479V39.8812L12.792 55.9571C12.792 56.0632 12.806 56.171 12.8339 56.2736C12.9493 56.677 12.7134 57.0996 12.3115 57.2143C12.1962 57.2474 12.0721 57.2613 11.9481 57.2613C11.6091 57.2613 11.2718 57.15 11.1565 56.9848L10.6848 40.9958C10.6673 40.3959 10.1745 39.9177 9.57172 39.9143H9.56823C8.96715 39.9143 8.47267 40.3872 8.44995 40.9854L7.84888 56.8387C7.71783 57.0752 7.34216 57.2595 6.96475 57.2595C6.87214 57.2595 6.78477 57.2491 6.75507 57.2404C6.73934 57.2352 6.68518 57.2178 6.66945 57.2126C6.47201 57.1569 6.30951 57.03 6.21166 56.8526C6.11206 56.6753 6.08935 56.4683 6.14526 56.2719C6.17322 56.171 6.18894 56.0667 6.1872 55.9623L6.11381 39.8917V28.902C6.11381 28.2864 5.61059 27.7891 4.99379 27.7891C4.37699 27.7891 3.87552 28.2882 3.87552 28.902V36.9408C3.87552 37.2103 3.76544 37.4659 3.561 37.6624C3.35133 37.8641 3.06652 37.9754 2.78171 37.9754C2.70832 37.9754 2.63493 37.9685 2.56155 37.9528C2.09676 37.8554 1.7473 37.3807 1.7473 36.8504V27.9873C1.7473 26.2293 3.18358 24.8 4.95011 24.8H12.1368M12.1368 23.0576H4.95011C2.22082 23.0576 0 25.2677 0 27.9838V36.8469C0 38.2032 0.924323 39.3822 2.19811 39.6517C2.38856 39.6917 2.58426 39.7126 2.77996 39.7126C3.34084 39.7126 3.89648 39.5421 4.36476 39.2361V39.8899L4.4364 55.8858C4.28439 56.4979 4.36826 57.1395 4.68102 57.6977C4.99728 58.2663 5.51798 58.6837 6.14876 58.8732L6.16099 58.8767L6.22214 58.8958C6.25359 58.9062 6.28505 58.9149 6.31824 58.9236C6.56811 58.9862 6.82846 58.9967 6.96125 58.9967C7.98168 58.9967 8.92871 58.4802 9.37428 57.6803C9.41272 57.6108 9.44592 57.5395 9.47387 57.4665C9.52629 57.6473 9.60842 57.8177 9.71675 57.9742C10.1641 58.6159 10.9958 58.9984 11.9428 58.9984C12.2364 58.9984 12.5194 58.9602 12.7868 58.8836C14.085 58.5133 14.8503 57.1848 14.5341 55.8893L14.7035 39.8969C14.7035 39.8969 14.7035 39.8847 14.7035 39.8777V31.3416C15.2906 31.9207 15.8306 32.4545 16.5103 33.1274L16.8597 33.4735C17.5604 34.1673 18.4236 34.5342 19.3549 34.5342C20.4627 34.5342 21.5792 34.0073 22.5804 33.0109L24.9899 30.613C25.5176 30.0861 25.8059 29.3906 25.8059 28.6516C25.8059 27.9126 25.5159 27.2153 24.9899 26.6919C24.4448 26.1476 23.7301 25.8485 22.9788 25.8485C22.2274 25.8485 21.5407 26.1372 21.0166 26.6606L19.4737 28.1977L15.8498 24.5913C14.8573 23.6036 13.5381 23.0594 12.135 23.0594L12.1368 23.0576Z" fill="#43525D"/>
<path d="M64.5106 13.0069C66.3977 13.0069 67.9318 14.5354 67.9318 16.4117C67.9318 18.2879 66.3959 19.8181 64.5106 19.8181C62.6252 19.8181 61.0893 18.2914 61.0893 16.4117C61.0893 14.5319 62.6252 13.0069 64.5106 13.0069ZM64.5106 11.2681C61.6607 11.2681 59.342 13.5756 59.342 16.4117C59.342 19.2478 61.6607 21.557 64.5106 21.557C67.3604 21.557 69.6791 19.2495 69.6791 16.4117C69.6791 13.5738 67.3604 11.2681 64.5106 11.2681Z" fill="#43525D"/>
<path d="M69.0535 24.7984C70.8183 24.8037 72.2528 26.233 72.2528 27.9858V36.8471C72.2528 37.3775 71.9016 37.8539 71.4368 37.9513C71.3599 37.9669 71.2848 37.9739 71.2097 37.9739C70.9266 37.9739 70.654 37.8643 70.4391 37.6574C70.2976 37.5218 70.198 37.3462 70.1543 37.1636C70.17 37.0905 70.177 37.0158 70.177 36.9375V28.8987C70.177 28.2831 69.6738 27.7858 69.057 27.7858C68.4402 27.7858 67.9387 28.2849 67.9387 28.8987V36.9375C67.9387 37.0158 67.9492 37.0923 67.9632 37.1653C67.9632 37.1705 67.9614 37.1775 67.9597 37.1827C67.9509 37.2279 67.9492 37.2731 67.9457 37.3201C67.9439 37.3462 67.9387 37.3705 67.9387 37.3948L67.771 55.9538C67.771 56.0599 67.7849 56.1677 67.8129 56.2703C67.9282 56.6737 67.6923 57.0963 67.2957 57.2093C67.1699 57.2441 67.0388 57.2597 66.9113 57.2597C66.5671 57.2597 66.2456 57.1467 66.1302 56.9815L65.6602 40.9926C65.6428 40.3927 65.15 39.9145 64.5472 39.911H64.5437C63.9426 39.911 63.4481 40.384 63.4254 40.9821L62.8243 56.8355C62.758 56.9537 62.6252 57.0667 62.4539 57.145C62.2827 57.2232 62.0887 57.2632 61.9262 57.2632C61.8546 57.2632 61.7882 57.2563 61.734 57.2406C61.7183 57.2354 61.6641 57.218 61.6484 57.2128C61.2448 57.0998 61.0089 56.6755 61.1242 56.2721C61.1522 56.1712 61.1679 56.0669 61.1662 55.9625L61.091 39.8919V36.941V28.9022C61.091 28.2866 60.5878 27.7893 59.971 27.7893C59.3542 27.7893 58.8527 28.2884 58.8527 28.9022V36.941C58.8527 37.0123 58.8423 37.0836 58.83 37.1531C58.7846 37.3462 58.685 37.5218 58.54 37.6609C58.3268 37.8661 58.049 37.9774 57.7659 37.9774C57.6925 37.9774 57.6174 37.9704 57.544 37.9548C57.0775 37.8556 56.7263 37.3792 56.7263 36.8488V27.9875C56.7263 26.2295 58.1626 24.8002 59.9291 24.8002H69.0517M69.0535 23.0596H59.9308C57.2015 23.0596 54.9807 25.2697 54.9807 27.9858V36.8471C54.9807 38.2017 55.905 39.3806 57.1806 39.6536H57.191C57.3815 39.6954 57.5755 39.7145 57.7694 39.7145C58.3355 39.7145 58.8807 39.5493 59.3472 39.2398V39.8919L59.4206 55.8895C59.2686 56.4999 59.3542 57.1432 59.667 57.7014C59.9867 58.2735 60.5074 58.6891 61.1365 58.8769L61.1539 58.8821L61.2064 58.8995C61.2291 58.9065 61.2535 58.9134 61.2762 58.9204C61.4807 58.976 61.6991 59.0038 61.9262 59.0038C62.3491 59.0038 62.7981 58.9047 63.1878 58.7256C63.7015 58.4891 64.1051 58.1274 64.355 57.6805C64.3934 57.6127 64.4266 57.5414 64.4546 57.4684C64.507 57.6458 64.5874 57.8162 64.694 57.9709C65.1413 58.6178 65.9712 59.0038 66.9148 59.0038C67.2066 59.0038 67.4931 58.9656 67.764 58.8908C67.7692 58.8908 67.7745 58.8873 67.7815 58.8856C69.0745 58.5152 69.838 57.1884 69.5218 55.893L69.672 39.2641C70.1298 39.558 70.6627 39.718 71.2132 39.718C71.4071 39.718 71.6011 39.6989 71.7915 39.6589C71.7967 39.6589 71.8002 39.6571 71.8055 39.6554C73.0793 39.3841 74.0036 38.2052 74.0036 36.8506V27.9893C74.0036 25.2801 71.7863 23.07 69.0622 23.063H69.057L69.0535 23.0596Z" fill="#43525D"/>
<path d="M29.6587 17.4985H33.4748V28.4134H29.6587V17.4985ZM34.8849 15.9283V12.7305H38.7027V28.4151H34.8849V15.9283ZM40.1128 17.4985H43.9289V28.4134H40.1128V17.4985ZM49.1551 28.4134H45.339V21.5187H49.1551V28.4134Z" fill="#03A64A"/>
<path d="M53.5724 36.5895H21.1092C20.627 36.5895 20.2356 36.2 20.2356 35.72C20.2356 35.2401 20.627 34.8506 21.1092 34.8506H53.5724C54.0546 34.8506 54.446 35.2401 54.446 35.72C54.446 36.2 54.0546 36.5895 53.5724 36.5895Z" fill="#43525D"/>
<path d="M28.4862 51.9455C28.3674 51.9455 28.245 51.9211 28.1297 51.8689C27.6894 51.6725 27.492 51.1577 27.6894 50.7196L34.6105 35.3636C34.8079 34.9254 35.3251 34.7289 35.7654 34.9254C36.2058 35.1219 36.4032 35.6366 36.2058 36.0748L29.2847 51.4307C29.1397 51.7524 28.8199 51.9455 28.4862 51.9455Z" fill="#43525D"/>
<path d="M48.0316 52.3192C47.6786 52.3192 47.3484 52.1053 47.2156 51.7593L41.1996 36.0311C41.0284 35.5825 41.2538 35.08 41.7046 34.9096C42.1554 34.7392 42.6604 34.9635 42.8316 35.4121L48.8476 51.1402C49.0188 51.5888 48.7934 52.0914 48.3426 52.2618C48.2395 52.3 48.1347 52.3192 48.0316 52.3192Z" fill="#43525D"/>
<path d="M61.0894 1.73887V6.3695H16.9997V1.73887H61.0894ZM61.0894 0H16.9997C16.0352 0 15.2524 0.779016 15.2524 1.73887V6.3695C15.2524 7.32936 16.0352 8.10837 16.9997 8.10837H61.0894C62.0539 8.10837 62.8367 7.32936 62.8367 6.3695V1.73887C62.8367 0.779016 62.0539 0 61.0894 0Z" fill="#43525D"/>
<path d="M18.6437 22.1133C18.1614 22.1133 17.77 21.7238 17.77 21.2439V7.18682C17.77 6.70689 18.1614 6.31738 18.6437 6.31738C19.1259 6.31738 19.5173 6.70689 19.5173 7.18682V21.2439C19.5173 21.7238 19.1259 22.1133 18.6437 22.1133Z" fill="#43525D"/>
<path d="M58.8805 11.7305C58.3982 11.7305 58.0068 11.341 58.0068 10.8611V7.18682C58.0068 6.70689 58.3982 6.31738 58.8805 6.31738C59.3627 6.31738 59.7541 6.70689 59.7541 7.18682V10.8611C59.7541 11.341 59.3627 11.7305 58.8805 11.7305Z" fill="#43525D"/>
</g>
<defs>
<clipPath id="clip0_348_2697">
<rect width="74" height="59" fill="white"/>
</clipPath>
</defs>
</svg>
