<svg width="24" height="25" viewBox="0 0 24 25" fill="none" xmlns="http://www.w3.org/2000/svg">
<path fill-rule="evenodd" clip-rule="evenodd" d="M12 5.30941C8.02871 5.30941 4.80941 8.52871 4.80941 12.5C4.80941 16.4713 8.02871 19.6906 12 19.6906C15.9713 19.6906 19.1906 16.4713 19.1906 12.5C19.1906 8.52871 15.9713 5.30941 12 5.30941ZM3 12.5C3 7.5294 7.0294 3.5 12 3.5C16.9706 3.5 21 7.5294 21 12.5C21 17.4706 16.9706 21.5 12 21.5C7.0294 21.5 3 17.4706 3 12.5ZM17.0784 8.7072C17.4463 9.04523 17.4706 9.61755 17.1325 9.9855L10.8238 16.8525C10.651 17.0406 10.4068 17.1469 10.1514 17.1452C9.89605 17.1434 9.65329 17.0338 9.48308 16.8434L6.18914 13.1588C5.85613 12.7863 5.88815 12.2144 6.26066 11.8813C6.63316 11.5483 7.20509 11.5804 7.5381 11.9529L10.1667 14.8933L15.8001 8.76136C16.1381 8.39341 16.7104 8.36916 17.0784 8.7072Z" fill="#03A64A"/>
</svg>
