<svg width="19" height="19" viewBox="0 0 19 19" fill="none" xmlns="http://www.w3.org/2000/svg">
<g clip-path="url(#clip0_348_3309)">
<path d="M9.49918 1.31659C14.0118 1.31659 17.6818 4.98822 17.6818 9.49918C17.6818 14.0101 14.0101 17.6818 9.49918 17.6818C4.98822 17.6818 1.31659 14.0118 1.31659 9.49918C1.31659 4.98657 4.98822 1.31659 9.49918 1.31659ZM9.49918 0C4.26081 0 0 4.26081 0 9.49918C0 14.7375 4.26081 18.9984 9.49918 18.9984C14.7375 18.9984 18.9984 14.7375 18.9984 9.49918C18.9984 4.26081 14.7375 0 9.49918 0Z" fill="#43525D"/>
<path d="M8.06083 13.2483C7.89297 13.2483 7.72346 13.1841 7.59509 13.0557L4.2954 9.75602C4.03866 9.49929 4.03866 9.08292 4.2954 8.82454C4.55213 8.5678 4.9685 8.5678 5.22688 8.82454L8.06083 11.6585L13.7748 5.9445C14.0316 5.68777 14.4479 5.68777 14.7063 5.9445C14.963 6.20124 14.963 6.61761 14.7063 6.87599L8.52822 13.0541C8.39986 13.1824 8.23199 13.2466 8.06248 13.2466L8.06083 13.2483Z" fill="#43525D"/>
</g>
<defs>
<clipPath id="clip0_348_3309">
<rect width="19" height="19" fill="white"/>
</clipPath>
</defs>
</svg>
