<svg width="22" height="22" viewBox="0 0 22 22" fill="none" xmlns="http://www.w3.org/2000/svg">
<mask id="path-1-inside-1_348_2759" fill="white">
<path d="M8.38606 8.31608L20.2237 11.4959L16.8684 13.5076C16.7476 13.5795 16.6665 13.7051 16.6481 13.8459C16.6313 13.9868 16.6787 14.1261 16.7797 14.2271L20.7761 18.226L18.2271 20.7766L14.246 16.793C14.1588 16.7058 14.0425 16.6583 13.9216 16.6583C13.9033 16.6583 13.8834 16.6583 13.865 16.6614C13.7243 16.6782 13.6003 16.7594 13.5269 16.8818L11.5624 20.1642L8.38453 8.31914M8.38606 7.09131C8.06629 7.09131 7.75264 7.21685 7.52008 7.44955C7.21101 7.75881 7.09014 8.21045 7.20336 8.63299L10.3812 20.4781C10.5082 20.9527 10.9075 21.3048 11.3941 21.3737C11.4507 21.3814 11.5073 21.386 11.5639 21.386C11.9892 21.386 12.3901 21.1624 12.6135 20.7904L14.0746 18.35L17.3626 21.6401C17.5921 21.8697 17.9042 21.9983 18.2286 21.9983C18.553 21.9983 18.8651 21.8697 19.0946 21.6401L21.6436 19.0895C22.121 18.6118 22.121 17.8356 21.6436 17.358L18.3403 14.0526L20.8541 12.5461C21.2749 12.2935 21.5059 11.8128 21.437 11.326C21.3697 10.8391 21.0163 10.4395 20.542 10.3125L8.7043 7.13264C8.59873 7.10509 8.49316 7.09131 8.38759 7.09131H8.38606Z"/>
</mask>
<path d="M8.38606 8.31608L20.2237 11.4959L16.8684 13.5076C16.7476 13.5795 16.6665 13.7051 16.6481 13.8459C16.6313 13.9868 16.6787 14.1261 16.7797 14.2271L20.7761 18.226L18.2271 20.7766L14.246 16.793C14.1588 16.7058 14.0425 16.6583 13.9216 16.6583C13.9033 16.6583 13.8834 16.6583 13.865 16.6614C13.7243 16.6782 13.6003 16.7594 13.5269 16.8818L11.5624 20.1642L8.38453 8.31914M8.38606 7.09131C8.06629 7.09131 7.75264 7.21685 7.52008 7.44955C7.21101 7.75881 7.09014 8.21045 7.20336 8.63299L10.3812 20.4781C10.5082 20.9527 10.9075 21.3048 11.3941 21.3737C11.4507 21.3814 11.5073 21.386 11.5639 21.386C11.9892 21.386 12.3901 21.1624 12.6135 20.7904L14.0746 18.35L17.3626 21.6401C17.5921 21.8697 17.9042 21.9983 18.2286 21.9983C18.553 21.9983 18.8651 21.8697 19.0946 21.6401L21.6436 19.0895C22.121 18.6118 22.121 17.8356 21.6436 17.358L18.3403 14.0526L20.8541 12.5461C21.2749 12.2935 21.5059 11.8128 21.437 11.326C21.3697 10.8391 21.0163 10.4395 20.542 10.3125L8.7043 7.13264C8.59873 7.10509 8.49316 7.09131 8.38759 7.09131H8.38606Z" fill="#03A64A"/>
<path d="M20.2237 11.4959L20.738 12.3536L22.7594 11.1416L20.4832 10.5301L20.2237 11.4959ZM16.8684 13.5076L17.38 14.3669L17.3826 14.3653L16.8684 13.5076ZM16.6481 13.8459L15.6564 13.7167L15.6552 13.7273L16.6481 13.8459ZM16.7797 14.2271L17.487 13.5203L16.7797 14.2271ZM20.7761 18.226L21.4834 18.9329L22.1898 18.226L21.4834 17.5191L20.7761 18.226ZM18.2271 20.7766L17.5198 21.4835L18.2271 22.1913L18.9344 21.4835L18.2271 20.7766ZM14.246 16.793L14.9533 16.0862L14.246 16.793ZM13.865 16.6614L13.9838 17.6543L14.0067 17.6516L14.0295 17.6478L13.865 16.6614ZM13.5269 16.8818L12.6693 16.3676L12.6688 16.3683L13.5269 16.8818ZM11.5624 20.1642L10.5965 20.4234L11.2082 22.7033L12.4204 20.6778L11.5624 20.1642ZM7.20336 8.63299L6.23744 8.89181L6.23752 8.89211L7.20336 8.63299ZM10.3812 20.4781L11.3472 20.2196L11.347 20.219L10.3812 20.4781ZM11.3941 21.3737L11.2539 22.3638L11.2601 22.3647L11.3941 21.3737ZM12.6135 20.7904L13.4708 21.3052L13.4714 21.3041L12.6135 20.7904ZM14.0746 18.35L14.782 17.6432L13.8754 16.7361L13.2167 17.8363L14.0746 18.35ZM17.3626 21.6401L18.07 20.9332L17.3626 21.6401ZM21.6436 17.358L22.3509 16.6511L21.6436 17.358ZM18.3403 14.0526L17.8263 13.1949L16.7274 13.8534L17.633 14.7595L18.3403 14.0526ZM20.8541 12.5461L21.3681 13.4039L21.3688 13.4035L20.8541 12.5461ZM21.437 11.326L20.4465 11.4629L20.4469 11.466L21.437 11.326ZM20.542 10.3125L20.2826 11.2782L20.2832 11.2784L20.542 10.3125ZM8.7043 7.13264L8.96373 6.16686L8.95687 6.16507L8.7043 7.13264ZM8.12664 9.28185L19.9643 12.4617L20.4832 10.5301L8.64548 7.35032L8.12664 9.28185ZM19.7095 10.6382L16.3542 12.6499L17.3826 14.3653L20.738 12.3536L19.7095 10.6382ZM16.3569 12.6483C15.9656 12.8813 15.7134 13.2799 15.6565 13.7167L17.6397 13.9752C17.6195 14.1303 17.5296 14.2778 17.38 14.3669L16.3569 12.6483ZM15.6552 13.7273C15.6023 14.1698 15.7527 14.6142 16.0724 14.934L17.487 13.5203C17.6047 13.638 17.6603 13.8037 17.641 13.9646L15.6552 13.7273ZM16.0724 14.934L20.0687 18.9329L21.4834 17.5191L17.487 13.5203L16.0724 14.934ZM20.0687 17.5191L17.5198 20.0697L18.9344 21.4835L21.4834 18.9329L20.0687 17.5191ZM18.9344 20.0697L14.9533 16.0862L13.5387 17.4999L17.5198 21.4835L18.9344 20.0697ZM14.9533 16.0862C14.6777 15.8104 14.3067 15.6583 13.9216 15.6583V17.6583C13.7783 17.6583 13.6398 17.6012 13.5387 17.4999L14.9533 16.0862ZM13.9216 15.6583C13.9198 15.6583 13.815 15.6559 13.7005 15.675L14.0295 17.6478C13.9833 17.6555 13.9481 17.6573 13.9333 17.6579C13.9196 17.6585 13.9093 17.6583 13.9216 17.6583V15.6583ZM13.7462 15.6685C13.2934 15.7226 12.8991 15.9843 12.6693 16.3676L14.3845 17.3961C14.3016 17.5345 14.1551 17.6338 13.9838 17.6543L13.7462 15.6685ZM12.6688 16.3683L10.7043 19.6507L12.4204 20.6778L14.385 17.3954L12.6688 16.3683ZM12.5282 19.9051L9.35038 8.06003L7.41869 8.57826L10.5965 20.4234L12.5282 19.9051ZM8.38606 6.09131C7.80627 6.09131 7.23658 6.31857 6.81275 6.74267L8.2274 8.15644C8.26869 8.11513 8.32631 8.09131 8.38606 8.09131V6.09131ZM6.81275 6.74267C6.25106 7.30471 6.03184 8.1245 6.23744 8.89181L8.16929 8.37417C8.14845 8.29639 8.17097 8.21291 8.2274 8.15644L6.81275 6.74267ZM6.23752 8.89211L9.41535 20.7372L11.347 20.219L8.16921 8.37387L6.23752 8.89211ZM9.41518 20.7366C9.64639 21.6007 10.3724 22.239 11.2539 22.3638L11.5343 20.3836C11.4426 20.3706 11.37 20.3047 11.3472 20.2196L9.41518 20.7366ZM11.2601 22.3647C11.3513 22.377 11.4536 22.386 11.5639 22.386V20.386C11.561 20.386 11.5501 20.3857 11.5281 20.3827L11.2601 22.3647ZM11.5639 22.386C12.3389 22.386 13.0659 21.9795 13.4708 21.3052L11.7562 20.2756C11.7143 20.3453 11.6396 20.386 11.5639 20.386V22.386ZM13.4714 21.3041L14.9326 18.8637L13.2167 17.8363L11.7555 20.2767L13.4714 21.3041ZM13.3673 19.0569L16.6553 22.347L18.07 20.9332L14.782 17.6432L13.3673 19.0569ZM16.6553 22.347C17.0734 22.7653 17.6403 22.9983 18.2286 22.9983V20.9983C18.1682 20.9983 18.1109 20.9742 18.07 20.9332L16.6553 22.347ZM18.2286 22.9983C18.8169 22.9983 19.3839 22.7653 19.8019 22.347L18.3873 20.9332C18.3463 20.9742 18.2891 20.9983 18.2286 20.9983V22.9983ZM19.8019 22.347L22.3509 19.7964L20.9363 18.3826L18.3873 20.9332L19.8019 22.347ZM22.3509 19.7964C23.2185 18.9283 23.2185 17.5192 22.3509 16.6511L20.9363 18.0649C21.0234 18.152 21.0234 18.2954 20.9363 18.3826L22.3509 19.7964ZM22.3509 16.6511L19.0476 13.3457L17.633 14.7595L20.9363 18.0649L22.3509 16.6511ZM18.8543 14.9104L21.3681 13.4039L20.3401 11.6884L17.8263 13.1949L18.8543 14.9104ZM21.3688 13.4035C22.1319 12.9454 22.5526 12.073 22.4272 11.1859L20.4469 11.466C20.4591 11.5526 20.4178 11.6417 20.3394 11.6888L21.3688 13.4035ZM22.4276 11.189C22.3051 10.3032 21.6628 9.57749 20.8008 9.34653L20.2832 11.2784C20.3697 11.3016 20.4343 11.3751 20.4465 11.4629L22.4276 11.189ZM20.8014 9.3467L8.96373 6.16688L8.44488 8.09841L20.2826 11.2782L20.8014 9.3467ZM8.95687 6.16507C8.77161 6.11671 8.58121 6.09131 8.38759 6.09131V8.09131C8.40511 8.09131 8.42585 8.09347 8.45173 8.10022L8.95687 6.16507ZM8.38759 6.09131H8.38606V8.09131H8.38759V6.09131Z" fill="#03A64A" mask="url(#path-1-inside-1_348_2759)"/>
<path d="M2.34833 14.6843C2.31869 14.6843 2.29024 14.673 2.269 14.6517C2.22615 14.6089 2.22445 14.5373 2.26983 14.4913C2.26993 14.4912 2.27003 14.4911 2.27013 14.491L4.09889 12.6595C4.0989 12.6595 4.09891 12.6595 4.09892 12.6595C4.14152 12.6169 4.21229 12.6151 4.25811 12.6601C4.30042 12.703 4.30191 12.7742 4.25672 12.82C4.25662 12.8201 4.25652 12.8202 4.25642 12.8203L2.42766 14.6517C2.42763 14.6518 2.4276 14.6518 2.42757 14.6518C2.4059 14.6735 2.3788 14.6843 2.34833 14.6843Z" fill="#03A64A" stroke="#03A64A"/>
<path d="M13.1306 4.54465C13.1009 4.54465 13.0725 4.53333 13.0512 4.51208C13.0084 4.4692 13.0067 4.39763 13.0521 4.35161C13.0522 4.35151 13.0523 4.35141 13.0524 4.35131L14.8811 2.51987C14.8811 2.51986 14.8811 2.51985 14.8812 2.51984C14.9237 2.47725 14.9945 2.47548 15.0403 2.52043C15.0826 2.56337 15.0841 2.63452 15.0389 2.68035C15.0388 2.68045 15.0387 2.68055 15.0387 2.68064L13.2099 4.51208C13.2099 4.51209 13.2099 4.5121 13.2099 4.51211C13.1882 4.5338 13.1611 4.54465 13.1306 4.54465Z" fill="#03A64A" stroke="#03A64A"/>
<path d="M5.014 5.11358L5.01385 5.11343L3.18258 3.28254C3.18257 3.28253 3.18256 3.28252 3.18255 3.28251C3.13981 3.23972 3.13804 3.16837 3.18313 3.12235C3.22587 3.08018 3.29644 3.07868 3.34206 3.12372C3.34216 3.12382 3.34226 3.12392 3.34237 3.12403L5.17266 4.95393C5.17269 4.95397 5.17273 4.95401 5.17277 4.95405C5.17278 4.95406 5.17279 4.95407 5.1728 4.95408C5.21543 4.9969 5.21715 5.06817 5.17208 5.11415C5.15048 5.13547 5.12357 5.14614 5.09333 5.14614C5.06368 5.14614 5.03524 5.13483 5.014 5.11358Z" fill="#03A64A" stroke="#03A64A"/>
<path d="M8.99482 3.31517C8.93312 3.31517 8.88281 3.26528 8.88281 3.20278V0.612387C8.88281 0.54989 8.93312 0.5 8.99482 0.5C9.05651 0.5 9.10682 0.54989 9.10682 0.612387V3.20278C9.10682 3.26528 9.05651 3.31517 8.99482 3.31517Z" fill="#03A64A" stroke="#03A64A"/>
<path d="M0.612004 9.04411C0.550309 9.04411 0.5 8.99422 0.5 8.93172C0.5 8.86923 0.550309 8.81934 0.612004 8.81934H3.20078C3.26247 8.81934 3.31278 8.86923 3.31278 8.93172C3.31278 8.99422 3.26247 9.04411 3.20078 9.04411H0.612004Z" fill="#03A64A" stroke="#03A64A"/>
</svg>
