<svg width="22" height="22" viewBox="0 0 22 22" fill="none" xmlns="http://www.w3.org/2000/svg">
<g clip-path="url(#clip0_348_3312)">
<path d="M8.386 8.31608L20.2237 11.4959L16.8684 13.5076C16.7475 13.5795 16.6664 13.7051 16.648 13.8459C16.6312 13.9868 16.6786 14.1261 16.7796 14.2271L20.776 18.226L18.227 20.7766L14.2459 16.793C14.1587 16.7058 14.0424 16.6583 13.9216 16.6583C13.9032 16.6583 13.8833 16.6583 13.865 16.6614C13.7242 16.6782 13.6003 16.7594 13.5268 16.8818L11.5623 20.1642L8.38447 8.31914M8.386 7.09131C8.06623 7.09131 7.75258 7.21685 7.52002 7.44955C7.21095 7.75881 7.09008 8.21045 7.2033 8.63299L10.3811 20.4781C10.5081 20.9527 10.9075 21.3048 11.394 21.3737C11.4506 21.3814 11.5072 21.386 11.5638 21.386C11.9892 21.386 12.39 21.1624 12.6134 20.7904L14.0746 18.35L17.3626 21.6401C17.5921 21.8697 17.9042 21.9983 18.2285 21.9983C18.5529 21.9983 18.865 21.8697 19.0945 21.6401L21.6435 19.0895C22.1209 18.6118 22.1209 17.8356 21.6435 17.358L18.3402 14.0526L20.854 12.5461C21.2748 12.2935 21.5058 11.8128 21.437 11.326C21.3697 10.8391 21.0162 10.4395 20.5419 10.3125L8.70424 7.13264C8.59867 7.10509 8.4931 7.09131 8.38753 7.09131H8.386Z" fill="#43525D"/>
<path d="M2.34858 15.1843C2.19251 15.1843 2.03492 15.1246 1.91558 15.0052C1.6769 14.7663 1.6769 14.379 1.91558 14.1386L3.74547 12.3061C3.98416 12.0672 4.37125 12.0672 4.61146 12.3061C4.85014 12.5449 4.85014 12.9322 4.61146 13.1726L2.78157 15.0052C2.66223 15.1246 2.50617 15.1843 2.34858 15.1843Z" fill="#43525D"/>
<path d="M13.1306 5.04465C12.9745 5.04465 12.8169 4.98494 12.6976 4.86552C12.4589 4.62669 12.4589 4.23936 12.6976 3.999L14.5275 2.16643C14.7661 1.9276 15.1532 1.9276 15.3934 2.16643C15.6321 2.40526 15.6321 2.79259 15.3934 3.03296L13.5636 4.86552C13.4442 4.98494 13.2881 5.04465 13.1306 5.04465Z" fill="#43525D"/>
<path d="M5.09339 5.64614C4.93733 5.64614 4.77974 5.58644 4.6604 5.46702L2.82897 3.63598C2.59029 3.39715 2.59029 3.00982 2.82897 2.76946C3.06766 2.53062 3.45475 2.53062 3.69496 2.76946L5.52638 4.60049C5.76506 4.83932 5.76506 5.22666 5.52638 5.46702C5.40704 5.58644 5.25098 5.64614 5.09339 5.64614Z" fill="#43525D"/>
<path d="M8.99494 3.81517C8.65681 3.81517 8.38293 3.54113 8.38293 3.20278V0.612387C8.38293 0.274043 8.65681 0 8.99494 0C9.33307 0 9.60694 0.274043 9.60694 0.612387V3.20278C9.60694 3.54113 9.33307 3.81517 8.99494 3.81517Z" fill="#43525D"/>
<path d="M0.612004 9.54411C0.273872 9.54411 0 9.27007 0 8.93172C0 8.59338 0.273872 8.31934 0.612004 8.31934H3.20078C3.53891 8.31934 3.81278 8.59338 3.81278 8.93172C3.81278 9.27007 3.53891 9.54411 3.20078 9.54411H0.612004Z" fill="#43525D"/>
</g>
<defs>
<clipPath id="clip0_348_3312">
<rect width="22" height="22" fill="white"/>
</clipPath>
</defs>
</svg>
