<svg width="270" height="231" viewBox="0 0 270 231" fill="none" xmlns="http://www.w3.org/2000/svg">
<path d="M233.379 69.8941C225.037 65.9066 219.274 57.3898 219.274 47.5271C219.274 33.8433 230.367 22.7503 244.051 22.7503C257.735 22.7503 268.828 33.8433 268.828 47.5271C268.828 59.4022 260.474 69.3261 249.322 71.7421" stroke="#03A64A" stroke-width="1.4"/>
<rect x="0.7" y="22.001" width="48.1537" height="48.1537" rx="3.3" stroke="#03A64A" stroke-width="1.4"/>
<path d="M231.205 76.9731C232.654 74.799 233.07 73.6898 233.374 70.7671C233.758 67.0688 231.768 64.6589 232.047 63.6583C232.326 62.6577 234.195 61.3759 234.665 63.9035C235.23 66.9315 236.649 68.5501 238.006 69.8319C239.231 70.9894 241.021 69.9987 241.934 68.5435C242.66 67.386 243.258 65.6366 243.849 63.364C244.339 61.4805 247.344 59.0117 248.202 58.4362C248.816 58.0242 251.05 56.0394 251.805 57.8019C252.308 58.9692 248.198 61.2712 247.272 63.6092C246.283 66.1009 246.904 67.7065 247.187 68.1544C247.469 68.6024 250.685 65.6758 251.444 64.8355C254.725 61.1928 257.882 61.6734 258.631 62.4124C260.027 63.7793 253.704 65.4273 250.669 69.8221C247.436 74.5079 246.31 74.5537 242.236 78.2683C238.163 81.9829 237.728 82.7706 237.728 82.7706" stroke="#EEADA5" stroke-width="1.4"/>
<path d="M118.155 199.243C118.09 215.148 124.372 229.431 127.671 229.313C134.098 225.534 123.952 213.215 131.199 199.242" stroke="#EFAEA6" stroke-width="1.4"/>
<path d="M36.2631 83.4952C28.8394 73.1361 9.07027 77.176 9.93418 73.5464C10.532 71.0351 23.057 70.1817 30.6153 71.9638C38.1737 73.7459 41.0216 68.2982 42.6114 69.3249C44.2013 70.3517 43.4064 71.833 43.4721 73.7459C43.5331 75.5236 44.2347 76.2483 44.2347 76.2483" stroke="#EFAEA6" stroke-width="1.4"/>
<path d="M170.331 145.24C184.669 142.444 238.612 137.212 244.074 148.023C251.268 162.253 250.772 192.199 188.448 197.996M110.182 197.996C2.92766 177.705 39.7267 137.919 61.9813 139.501C83.4081 141.025 81.1943 143.645 105.109 145.24" stroke="#03A64A" stroke-width="1.4"/>
<path d="M115.891 179.186V179.186C123.958 180.132 131.998 182.038 138.921 183.679C139.149 183.733 139.375 183.786 139.6 183.839C143.238 184.701 146.56 185.479 149.375 185.979C152.17 186.475 154.553 186.715 156.278 186.451C157.982 186.19 159.317 185.606 160.496 185.07C160.55 185.046 160.604 185.021 160.658 184.997C161.784 184.485 162.735 184.053 163.817 183.897C166.007 183.581 168.97 184.383 174.813 189.24L175.26 188.702L174.813 189.24C180.569 194.025 185.786 197.13 189.473 199.323C190.188 199.749 190.845 200.14 191.437 200.502C192.352 201.062 193.098 201.544 193.665 201.975C194.245 202.416 194.577 202.757 194.731 203.021C194.857 203.237 194.838 203.341 194.778 203.453C194.678 203.639 194.402 203.92 193.767 204.284C188.737 207.167 183.963 205.784 178.449 203.59C177.81 203.336 177.162 203.071 176.504 202.802C171.543 200.775 166.005 198.512 159.537 198.839C145.294 199.56 121.205 199.029 113.315 198.699C112.502 198.665 111.893 198.371 111.423 197.891C110.938 197.398 110.567 196.671 110.322 195.735C109.829 193.853 109.893 191.308 110.347 188.721C110.799 186.144 111.623 183.606 112.582 181.762C113.063 180.836 113.56 180.12 114.033 179.659C114.519 179.187 114.879 179.075 115.115 179.101L115.891 179.186Z" stroke="#EFAEA6" stroke-width="1.4"/>
<path d="M128.298 49.4348C119.001 50.8495 110.843 54.093 107.844 57.1578C92.1424 73.2066 93.972 91.2434 79.9393 112.102C75.5508 118.626 51.4863 82.3427 47.4296 76.1495C45.4094 73.0659 35.5747 84.8475 35.5747 84.8475C35.5747 84.8475 68.7611 132.565 80.9872 132.539C86.9589 132.529 99.4839 116.114 107.86 98.8035C110.429 103.891 114.141 108.78 113.704 118.923C113.178 131.091 101.974 138.955 105.814 146.397C108.143 150.916 122.589 154.183 137.548 154.526C152.507 154.183 166.951 152.312 169.279 147.793C173.119 140.351 161.918 131.094 161.393 118.923C160.956 108.78 164.668 103.891 167.236 98.8035C175.613 116.114 188.138 132.526 194.109 132.539C206.339 132.565 239.522 84.8475 239.522 84.8475C239.522 84.8475 229.687 73.0659 227.667 76.1495H227.674C223.617 82.3427 199.552 118.622 195.164 112.102C181.131 91.2434 181.335 72.3727 167.259 57.8543C166.228 56.7894 164.524 55.6498 162.359 54.5482" stroke="#0267A4" stroke-width="1.4"/>
<path d="M129.147 40.7384C131.184 50.0577 129.974 46.3146 128.433 48.9403C126.912 51.5334 122.662 50.2646 122.75 53.2599C122.819 55.6927 128.433 62.4791 142.068 62.4791" stroke="#F5B1B4" stroke-width="1.4"/>
<path d="M121.054 16.0989C118.538 24.0841 114.868 26.9241 117.775 27.6664C119.973 28.2255 115.111 44.7125 123.369 42.5543C130.242 40.7577 136.161 37.486 138.226 31.3174" stroke="#F5B1B4" stroke-width="1.4"/>
<path d="M129.437 23.3921L129.437 23.3915C128.972 22.9804 128.354 22.5782 127.69 22.1647C127.519 22.0577 127.343 21.9493 127.163 21.8386C126.631 21.5105 126.066 21.1618 125.475 20.768C123.956 19.755 122.334 18.4839 120.994 16.7095V16.7089L120.859 16.5243C120.751 16.3772 120.649 16.0955 120.601 15.6529C120.555 15.2252 120.567 14.717 120.626 14.1841C120.744 13.1055 121.04 12.0419 121.311 11.4865L121.311 11.4858C122.723 8.58685 126.595 3.44691 136.832 1.76603L136.832 1.76601C140.445 1.1721 143.317 1.89799 145.677 3.32535C148.056 4.76393 149.949 6.93698 151.543 9.28668C152.736 11.0445 153.735 12.859 154.648 14.5162C154.96 15.0828 155.262 15.631 155.558 16.1522C156.131 17.1609 156.688 18.0775 157.247 18.7946C157.794 19.4966 158.412 20.0997 159.138 20.3546C160.185 20.7225 161.228 20.9032 162.19 21.0701C162.263 21.0828 162.336 21.0955 162.409 21.1081C163.451 21.29 164.396 21.4717 165.293 21.8536C167.017 22.5866 168.719 24.1265 170.19 28.3479L170.19 28.3479C172.383 34.6408 171.518 40.0201 169.319 44.2731L169.319 44.2732C168.288 46.2673 166.818 47.7369 165.444 49.1109C165.308 49.2465 165.173 49.3813 165.04 49.5155C164.312 50.2481 163.612 50.9826 163.095 51.7563C162.571 52.5406 162.209 53.4028 162.201 54.3922C162.191 55.7123 162.877 57.0839 163.517 58.2978C163.585 58.4269 163.652 58.5548 163.719 58.6815C164.323 59.8213 164.878 60.8672 165.089 61.8695C165.202 62.4065 165.205 62.8939 165.077 63.3453C164.949 63.7919 164.678 64.2517 164.164 64.7167C163.11 65.671 161.073 66.6114 157.392 67.3946L157.537 68.0792L157.392 67.3946C156.349 67.6164 155.568 68.0701 155.06 68.7561C154.558 69.4331 154.387 70.2492 154.385 71.0744C154.382 72.6708 155.023 74.5797 155.59 76.2683L155.605 76.3137L155.613 76.3369C155.904 77.2034 156.178 78.0219 156.372 78.7698C156.57 79.5322 156.667 80.1585 156.634 80.639C156.602 81.1004 156.46 81.3442 156.247 81.4918C156 81.6631 155.514 81.8076 154.583 81.7303C150.44 81.3604 146.841 79.2558 144.345 76.4082C141.842 73.5527 140.495 70.0073 140.769 66.8048C141.019 63.8925 142.595 61.1918 144.021 58.7501C144.18 58.4764 144.338 58.2059 144.492 57.9387C145.228 56.6617 145.903 55.4061 146.12 54.2855C146.232 53.7083 146.234 53.1199 146.028 52.5602C145.819 51.9926 145.421 51.5225 144.854 51.1463C139.483 47.5828 137.474 43.6626 136.944 40.3801C136.409 37.0641 137.369 34.3162 138.063 33.1223L138.063 33.1213C138.38 32.5734 138.362 31.9988 138.246 31.5092C138.135 31.0398 137.915 30.5686 137.731 30.1748L137.726 30.1647C137.526 29.7376 137.364 29.3888 137.28 29.0676C137.2 28.7588 137.219 28.5695 137.289 28.4299C137.418 28.1714 137.549 27.9289 137.689 27.6688C137.815 27.4341 137.949 27.1851 138.097 26.8969C138.381 26.3422 138.666 25.7336 138.843 25.1319C139.017 24.5372 139.11 23.8735 138.925 23.2429C138.73 22.5754 138.256 22.0511 137.516 21.7079C136.43 21.204 135.319 21.046 134.361 21.2238C133.402 21.4017 132.555 21.9306 132.142 22.8195L132.142 22.8195C132.013 23.0955 131.561 23.4264 130.884 23.5697C130.206 23.713 129.663 23.5924 129.437 23.3921Z" stroke="black" stroke-width="1.4"/>
</svg>
