<svg version="1.2" xmlns="http://www.w3.org/2000/svg" viewBox="0 0 254 250" width="254" height="250">
	<title>Group 75-svg</title>
	<defs>
		<clipPath clipPathUnits="userSpaceOnUse" id="cp1">
			<path d="m109.66 57.25c-0.89 3.06-1.85 6.11-2.86 8.99q-0.3 0.88-0.67 1.8c-2.45 6.26-6.77 14.04-9.46 18.51-2.53 4.2-3.31 7.83-3.96 10.82-0.71 3.32-1.26 5.84-3.81 7.48-5.86 3.75-22.76 6.37-22.74-0.19 0.01-1.64 2.1-4.82 4.5-8.46 2.6-3.94 5.56-8.42 6.63-12.11 1.27-4.35 2.66-7.59 3.89-10.46 1-2.35 1.9-4.44 2.53-6.67q0.53-1.92 1.12-4.12c0.99-3.66 2.14-7.96 3.81-13.23 1.18-3.72 3.37-6.98 5.1-9.22 0.67-0.88 1.28-1.6 1.72-2.13q0.45-0.53 0.65-0.79c1-1.36 2.03-2.43 3.01-3.05 8.68-5.5 15.32-3.69 15.32-3.69-0.09 0.49 0 1.17 0.12 2.01 0.14 0.92 0.3 2.04 0.28 3.33 2.4 2.68 4.8 5.81 7.13 8.86 10.93 14.27 20.51 26.78 23.04-16.37 0.08-1.36 11.36-3.05 11.33-0.95-0.86 70.39-30.56 46.43-46.68 29.64z"/>
		</clipPath>
	</defs>
	<style>
		.s0 { fill: #ffffff } 
		.s1 { fill: none;stroke: #212427;stroke-width: 1.4 } 
		.s2 { opacity: .5;fill: #212427 } 
		.s3 { fill: none;stroke: #efaea6;stroke-width: 1.4 } 
		.s4 { fill: none;stroke: #0267a4;stroke-width: 1.4 } 
		.s5 { fill: none;stroke: #03a64a;stroke-width: 1.4 } 
		.s6 { fill: #ffffff;stroke: #212427;stroke-width: 1.4 } 
		.s7 { fill: #0267a4 } 
		.s8 { fill: none;stroke: #000000;stroke-width: 1.4 } 
	</style>
	<path class="s0" d="m92.9 245.2c1.1-3.2 2.7-11.6 2.7-11.6l-9.3-2.4-2.3 12.7 5.3 5.3z"/>
	<path fill-rule="evenodd" class="s1" d="m96.3 234.3q-0.1-0.1-0.2-0.2-0.3-0.5-0.5-0.7-0.1-0.1-0.1-0.1zm0.6 1.9c0 1.2 1 2.2 2 3 0.7 0.4 1.4 0.9 2.3 1.3l-4.9-6.2c0.3 0.7 0.6 1.4 0.6 1.9zm4.3 4.3l5.3 6.7 0.2-0.6c1.1 0.2 1.8 0.1 2.2-0.1 0.4-0.3 0.6-0.6 0.8-1.1 0.1-0.4 0.1-0.9 0-1.3q-0.1-0.3-0.1-0.5-0.1 0-0.1 0-0.4-0.2-1.2-0.4-0.6-0.2-1.3-0.5c-1.2-0.4-2.7-0.9-4.2-1.5q-0.8-0.3-1.6-0.7zm-5.6-7.1c-2.1 0.9-4.3 0.3-6.1-0.4-0.9-0.4-1.8-0.9-2.5-1.3q-0.3-0.1-0.6-0.3-0.4-0.3-0.7-0.4-0.2 0.1-0.4 0.6c-0.3 0.6-0.6 1.5-0.8 2.6-0.5 2.2-0.8 4.7-0.8 6.2zm0 0q0 0 0 0 0 0 0 0zm14 10.2q0 0 0 0 0 0 0 0zm-23.8-12.7q0 0 0 0 0 0 0 0z"/>
	<path class="s0" d="m5.4 200.8c3.1-0.3 10.6-2.1 10.6-2.1l-1.6-8.2-11.3 2.8-2.4 6.2z"/>
	<path fill-rule="evenodd" class="s1" d="m16.4 190.5q0 0 0 0l-11.6-5.2c0.6 2.7 2 8.7 3 13.5 0.6 2.3 1 4.3 1.3 5.5 0.2 0.9 0.5 1.4 0.9 1.6q0.4 0.4 1.1 0.3c0.4-0.1 0.8-0.3 1.1-0.5q0.2-0.1 0.3-0.2 0 0 0 0c-0.1-1-0.2-4 0-7 0-1.5 0.2-3.1 0.6-4.4q0.2-1 0.7-1.7c0.2-0.5 0.6-0.9 1.1-1.2q0.5-0.2 0.9-0.4 0.4-0.1 0.5-0.2 0.1 0 0.2-0.1 0 0-0.1 0zm-11.6-5.2c-0.1-0.5 0.1-1 0.6-1.2 1.2-0.6 3.7-1.4 5.9-1.9 1.2-0.3 2.2-0.4 2.9-0.5q0.5 0 0.7 0c0.1 0.9 0.3 2 0.5 3.3q0.1 0.7 0.3 1.3c0.2 1.3 0.5 2.7 0.7 4.2l-11.6-5.2q0 0 0 0zm7.7 20.3q0 0 0 0zm0-0.2q0 0 0 0 0 0 0 0zm4-14.8q0 0 0 0 0 0 0 0z"/>
	<path fill-rule="evenodd" class="s1" d="m111.9 97.2c-0.9 12.4-0.9 41.7-1 58.3 0 5.8 0 10 0 11.5-0.1 2.1-0.9 7-2.1 13.2-1.1 6.2-2.7 13.6-4.2 20.8-1.6 7.1-3.1 14-4.2 19.1-0.6 2.6-1.1 4.7-1.4 6.1q-0.3 1.1-0.4 1.7l-0.1 0.4c-1.2 1.3-3.5 1.6-6.1 1.1-2.7-0.5-5.4-1.9-7.3-3.5q0-0.2 0-0.4 0-0.6 0.1-1.6c0.1-1.4 0.4-3.2 0.8-5.4 0.5-2.9 1.1-6.5 1.8-10.3q0.6-3.2 1.2-6.7c2.3-12.9 4.7-27.9 4.7-36.7 0-7.6-0.9-13.2-1.9-18.7-0.4-2.7-0.9-5.3-1.2-8.2-0.5-3.8-0.8-6.5-0.9-7.1q0-0.1 0-0.1l-1.4-0.1c-18.8 48.3-53 60.2-67.6 60.2q-0.1-0.1-0.2-0.3-0.3-0.4-0.7-1.3c-0.5-1.2-1-2.8-1.4-4.5-0.4-1.6-0.7-3.3-0.8-4.6q-0.1-1 0-1.6 0.1-0.2 0.1-0.3c7.6-2.5 19.1-8.1 29.1-17.1 10.1-9 18.6-21.5 20-37.7q0.3-2.9 0.7-5.3v-0.2c0.8-5.5 1.1-6.7 1.9-9.6q0.1-0.3 0.2-0.7l-0.7-0.2m14.9-0.4c4-0.8 11.1-3.3 17.3-5.6 3.2-1.2 6.1-2.3 8.3-3.2 1-0.4 1.9-0.7 2.5-1zm-12.6-8.8c-0.4 2.1-1.7 7.1-2.3 9.3zm-4.6 19.9c0.8-5.7 1.2-7 2-9.9q0.1-0.4 0.2-0.7zm10-16.2l-4.8-3.6q0 0 0 0l-0.7-0.2c0.2-0.7 2.8 1.5 5.5 3.8zm7.1 5.1q0 0-0.1 0-0.2 0.2-0.4 0.2c-0.3 0.1-0.6 0-0.8-0.1-0.5-0.2-1-0.5-1.6-0.9-1.2-0.8-2.7-2.1-4.1-3.3q-0.3-0.2-0.5-0.5c-1.3-1.1-2.6-2.1-3.5-2.8q-0.2-0.2-0.4-0.3zm-11.3-7.6l-0.7-0.5q0.3 0.2 0.7 0.5zm39.4-2.1l-39.9 1m39.9-1l-28.1 9.7m-12.5-8.8l0.7 0.1m-54.3 79.9q0 0 0 0 0 0 0 0zm3 12.7q0 0 0 0z"/>
	<path class="s2" d="m87 122.4q0 0 0 0.1 0.1-0.1 0.1-0.1c0 0-0.1 0-0.1 0z"/>
	<path class="s2" d="m76.3 110.9q0 0 0 0 0.2 0 0.2 0c0 0-0.2 0-0.2 0z"/>
	<path class="s2" d="m90.6 118.6q0 0 0 0 0.1 0 0.1 0c0 0-0.1 0-0.1 0z"/>
	<path fill-rule="evenodd" class="s3" d="m114 40.1v-0.6l-0.4-0.2-1.7-0.7 0.8 1.7 1.1 2.2 0.2-2.4z"/>
	<path class="s0" d="m116.1 30.9c3.5-0.1 2.3 5.6 5.6 6.7 1.7 0.6 1.5-0.3 2.5-0.9 0.7-0.3 1.3-0.8 1.9 0.3 11.7 21.5-14.7 73.2-13.5 76.8 1.1 2.9-14.9-6.9-35.8-5.7-25.2 1.4 4.8-26 5.8-28.5 1.1-2.4 20.1-43.6 20.1-43.6 0 0 6.8-1.7 13.4-5.1z"/>
	<path fill-rule="evenodd" class="s4" d="m150.6 63.6c4.7 0.1 9.1 0.3 11.4 0.2 13.5-0.6 17.8-28 18.2-29.1m-36.9 11.8c-5-1.8-10.8-4.8-17.2-9.5 0 0-1.2 2.7-2.3 10.5zm11.2 2.7c2.1 0.2 3.8 0.2 5 0.1 5.6-0.5 7.2-9.2 8.7-17.8zm-37.3 14.5c-1.7 3.4-3.3 7.2-4.1 12-2.7 15.9-10.5 30.8-7.8 35.3 1.7 2.6 4.5 3.8 9.2 0.8 7.3-4.6 8.8-25.6 9.5-30.5 0.3-1.9 0.5-4.5 0.9-7.2 0.1-1 0.5-2.2 1.1-3.4z"/>
	<path fill-rule="evenodd" class="s3" d="m120.1 26.2c1.1 2.4 7.8 4.8 13.2 3.7 2.2-0.4-1.5-6.5 0.6-6.9 2.1-0.3-2.2-5.7-2.9-8.7"/>
	<path fill-rule="evenodd" class="s1" d="m133.5 11l0.7 0.1-0.7 0.4q0-0.2 0-0.4 0 0 0-0.1zm0 0l-17.1-0.5c0.5-0.6 1.2-0.7 2-0.5q0.5 0 0.8 0.1 0.3 0.1 0.5 0.1c0.4 0.1 0.9 0.1 1.4 0 0.5-0.1 0.9-0.3 1.2-0.6 0.3-0.2 0.5-0.4 0.6-0.6q0.1 0 0.1 0c0.2-0.2 0.3-0.4 0.5-0.5 0.2-0.1 0.5-0.2 0.9-0.3 1-0.2 1.6 0.2 2.2 0.7q0.1 0.1 0.2 0.2c0.2 0.2 0.5 0.4 0.8 0.6 0.4 0.2 0.9 0.4 1.5 0.2 1-0.4 2.1-0.8 3-0.8q0.6 0.1 0.9 0.5c0.2 0.2 0.4 0.6 0.5 1.4zm-0.2 1.3q-0.3 0.4-0.8 0.8c-0.6 0.4-1.4 0.7-2.3 1q-0.3 0.1-0.6 0.2l3.9-2.8q-0.1 0.5-0.2 0.8zm-9.6 6q-0.1 0.1-0.1 0.2c-0.3 0.4-0.3 0.9-0.1 1.4q0.3 0.7 1.1 1.5c0.4 0.4 0.5 0.7 0.5 0.8-0.1 0.1-0.3 0.1-0.7 0-0.3 0-0.6-0.2-0.9-0.4q-0.5-0.3-0.8-0.6-0.1-0.1-0.1-0.1c-0.2-0.2-0.5-0.4-0.7-0.6-0.4-0.2-0.8-0.3-1.2-0.2-0.5 0.1-0.8 0.4-1.2 0.8-0.4 0.5-0.4 1.1-0.4 1.6 0.1 0.4 0.2 0.9 0.3 1.4q0.3 0.8 0.3 1.4 0.1 0.2 0.1 0.3-0.4 0-0.9-0.3c-0.7-0.4-1.7-1-2.5-1.8-0.9-0.8-1.6-1.7-2-2.6-0.3-0.8-0.3-1.5 0.2-2.1l-0.6-0.4 0.7-0.1-0.1 0.5q0.1-0.3 0.3-0.5zm0.9-0.5c0.4-0.2 0.8-0.2 1.2-0.2v0.7h-2.1c0.2-0.3 0.6-0.4 0.9-0.5zm3.6-2.5c0.2-0.5 0.7-0.8 1.3-1zm0 1.3c-0.1-0.3-0.2-0.8 0-1.3zm0.1 0.3c0-0.1-0.1-0.2-0.1-0.3zm0 0q0 0.1 0 0.1zm0.1 0.2q0 0.1 0 0.2zm-13.5 1.6h-0.2l0.8-4.2c0.2 1.2 0.3 2.7-0.6 4.2zm0.6-4.3q0 0.1 0 0.1zm0 0q0 0 0 0zm0 0c-0.1-0.7-0.1-1.3 0-1.9zm0-1.9c0.1-0.6 0.4-1.2 1-1.8zm18.7-1.2l-4.6 3.2m-15.6 4.3l0.6 0.4m-0.6-0.4l0.6 0.4m15-4.7l-1.3 1m0 0v1.2m0 0l0.1 0.3m0 0v0.1m-13.8 2.1l0.9-4.6m0 0v-0.2m0 0v-1.9"/>
	<path fill-rule="evenodd" class="s5" d="m242.4 43.8q-0.1 0.4-0.8 0.6-0.4 0.1-0.9 0.1c-3.6 0.3-12.1-1.5-22.3-3.8m6.8-34.3c7.6-1.2 14.1-2.1 17.4-2.5 1.1-0.1 1.8-0.1 2.2-0.1z"/>
	<path fill-rule="evenodd" class="s5" d="m133.4 19.6c2.8 0.4 1.9-0.5 5.5 0.4 2.3 0.5 5.5 3.2 8.2 5.2m70.3 15.7q-0.1 0.4-0.8 0.6 0 0 0 0-0.4 0.1-0.9 0.1c-8.5 0.6-46.1-9.5-59.7-13zm-72.8-27.7c2.6-1.5 5.8-3 9.9-3.2 7.8-0.2 52.2-7.9 63.1-9q0 0 0 0c1.1-0.1 1.8-0.1 2.2-0.1zm-5.5 2.9c-3.1 0-3.1-0.4-7.8-0.7l13.3-2.2c-2.6 1.5-4.4 2.9-5.5 2.9z"/>
	<path class="s6" d="m211.3 38.9c-4.1-3.1-6.8-9.7-6.3-17.7 0.6-7.4 4.4-14.2 8.9-17.5 1.3-1 2.6-1.6 3.9-2q1.2-0.3 2.4-0.2c2.5 0.3 4.7 2.5 6.1 6.2 1.4 3.8 2 8.8 1.6 14.4-0.4 5.4-1.9 10.2-4.1 13.6-2.1 3.4-4.8 5.2-7.5 5.1-1.8-0.1-3.5-0.7-5-1.9z"/>
	<g id="Clip-Path" clip-path="url(#cp1)">
		<path fill-rule="evenodd" class="s7" d="m105.5 65.8c1-2.9 1.9-5.9 2.8-8.9l0.7-2.4 1.7 1.8-1 1 1-1c4 4.2 8.8 8.7 13.7 12.2 5 3.4 9.9 5.5 14.2 5.2 4.1-0.3 8-2.9 11.1-10 3-7 5-18.3 5.2-35.5q-0.2-0.1-0.5-0.1c-0.9-0.1-2.2-0.1-3.5 0.1-1.4 0.1-2.7 0.4-3.7 0.7q-0.5 0.1-0.8 0.3 0-0.3 0-0.6 0 0 0 0 0 0 0 0l-1.5-0.1h-1.3c0-0.6 0.4-1 0.6-1.2 0.2-0.2 0.4-0.4 0.6-0.5 0.5-0.2 1-0.4 1.6-0.6 1.2-0.3 2.7-0.6 4.2-0.8 1.4-0.2 2.9-0.2 4.1-0.1 0.6 0.1 1.3 0.2 1.8 0.4 0.5 0.3 1.3 0.9 1.2 1.9-0.2 17.7-2.2 29.6-5.5 37.2-3.3 7.8-7.9 11.3-13.4 11.7-5.2 0.4-10.8-2.2-16-5.7-4.5-3.2-8.8-7.1-12.5-10.9-0.7 2.3-1.4 4.6-2.2 6.8l-1.3-0.5 0.2 0.1-0.2-0.1 1.3 0.5q-0.3 0.9-0.7 1.9l-1.4-0.6h0.1l1.3 0.6c-2.5 6.3-6.8 14.2-9.5 18.7l-1.5-0.9 0.3 0.2-1.2-0.8c2.6-4.4 6.9-12.1 9.3-18.3q0.4-0.9 0.7-1.7zm38.1-37.3h1.3zm2.8 0.8c-0.7 10.5-1.7 17.8-3.2 22.5q-1.1 3.6-2.6 5.6c-1.1 1.3-2.3 2.2-3.8 2.3-1.4 0.2-2.8-0.3-4.1-1-1.3-0.8-2.6-1.9-3.9-3.2-2.5-2.6-5.2-6.1-7.9-9.6-2.4-3.1-4.8-6.2-7.1-8.8l-0.4-0.4v-0.6h1.4l1.1-0.9q0.1 0.2 0.3 0.4c0-1.2-0.1-2.2-0.3-3l-2.7 0.4c0.1 0.9 0.2 2 0.2 3.1l2.8 0.1q0-0.3 0-0.6c2.4 2.6 4.7 5.7 6.9 8.6 2.7 3.5 5.3 6.9 7.7 9.4q1.8 1.8 3.3 2.7c1 0.6 1.8 0.7 2.4 0.7 0.5-0.1 1.2-0.4 1.9-1.3 0.7-1 1.4-2.5 2.1-4.7 1.4-4.5 2.5-11.7 3.1-22.5l1.4 0.1 1.4 0.1q0 0 0 0c0 0.4-0.2 0.6-0.3 0.7q-0.1 0 0.1-0.1 0.1 0 0.2 0zm-50.9 56.6l2.4 1.4c-2.4 4-3.2 7.5-3.8 10.4-0.7 3.2-1.3 6.4-4.5 8.4l-1.5-2.4c2-1.2 2.5-3.1 3.2-6.5 0.7-3.1 1.5-6.9 4.2-11.3zm-30.7 16.9l0.3 0.1q0.1-0.1 0.1-0.2 0.4-1 1.1-2.1c0.8-1.5 2-3.3 3.2-5.1 2.6-4 5.4-8.3 6.4-11.7 1.3-4.5 2.8-7.8 4-10.6 1-2.4 1.9-4.4 2.4-6.5q0.6-1.9 1.2-4.1c1-3.7 2.1-8 3.8-13.3 1.2-4 3.6-7.4 5.3-9.7 0.7-0.9 1.3-1.6 1.8-2.2q0.4-0.5 0.6-0.7c1-1.4 2.2-2.6 3.4-3.4 4.5-2.9 8.6-3.9 11.5-4.1 1.5-0.1 2.7-0.1 3.5 0q0.6 0.1 1 0.2 0.2 0 0.3 0 0 0 0.1 0 0 0.1 0 0.1 0 0 0 0 0 0 0 0 0 0 0 0c0 0 0 0-0.4 1.3l1.4 0.3c0 0 0 0.2 0 0.5q0 0.4 0.1 1l-2.7 0.4q-0.1-0.5-0.2-1c-0.6-0.1-1.6-0.1-2.9 0-2.5 0.2-6.1 1.1-10.2 3.7l-0.8-1.2-0.4-0.7 1.2 1.9c-0.8 0.5-1.7 1.4-2.7 2.7l-1.1-0.8 0.2 0.1 0.9 0.7c-0.1 0.2-0.4 0.5-0.7 0.8-0.4 0.6-1 1.3-1.7 2.1-1.7 2.2-3.7 5.3-4.8 8.8-1.7 5.2-2.8 9.5-3.8 13.2q-0.6 2.2-1.2 4.1c-0.6 2.4-1.5 4.5-2.5 6.9-1.3 2.8-2.6 6-3.9 10.3-1.1 3.9-4.2 8.6-6.8 12.4-1.2 1.9-2.3 3.5-3.1 4.9q-0.6 1.1-0.9 1.9c-0.2 0.5-0.2 0.8-0.2 0.9q0 0.1 0 0.1v-0.1h-1.4l-0.5 1.4 1.8 0.6 0.1-1.9c0 0.5 0.1 0.8 0.3 1.1 0.3 0.3 0.8 0.6 1.5 0.8 1.4 0.6 3.4 0.7 5.8 0.6 4.8-0.3 10.3-1.8 12.9-3.6l0.8 1.2 0.7 1.2c-3.2 2.1-9.1 3.7-14.2 4-2.6 0.2-5.1 0-7-0.7-1-0.4-1.9-0.9-2.6-1.7-0.7-0.8-1.1-1.8-1-3zm90.1-75.1q0 0 0 0h1.3-1.3 1.4-1.4q0 0 0 0zm-46.8 39.1l-1.1-0.4 1.1 0.4zm-12.7 19.2l1 0.5-1-0.5zm20.6-56.1l-1.2-0.4-0.4 1.4 1.4 0.2zm-23.3 67.7l1.3 0.3zm-22-1.2l-1.2-0.8zm6.6-12.1l1.4 0.4zm3.9-10.5l-1.3-0.5zm2.5-6.7l1.4 0.4zm1.1-4.1l-1.4-0.4zm3.8-13.2l-1.3-0.4zm5.1-9.3l1.1 0.9zm1.7-2.1l1.1 0.9zm19.1-5.6l1.4-0.1zm7.4 12.1l1.1-0.8z"/>
	</g>
	<path fill-rule="evenodd" class="s8" d="m115.3 31.1c2.6 13.2 13.3 39.1 35.1 36.8 21.8-2.2 26.1-31.8 25.5-46.3"/>
	<path fill-rule="evenodd" class="s8" d="m150.3 65.8c20.4 9.5 46-10.5 49.2-26"/>
	<path fill-rule="evenodd" class="s3" d="m146.7 27.7c0.1-3.9 1.4-3.8 0.7-6.6-1.3-5.7 1.6-10.7 8.3-8.6 2.8 0.9-1.5 4.4-0.9 6.7 0.8 3 3.2 1.2 3.8 2.9 0.4 0.9-4.4 3.5-4.6 4.7"/>
	<path fill-rule="evenodd" class="s5" d="m119.9 37q0.4-0.2 0.6-0.4c0.2-0.1 0.3-0.2 0.4-0.3 0.2-0.1 0.3-0.1 0.7-0.1 0.5 0.1 0.7 0.3 0.9 0.5 0.1 0.2 0.2 0.5 0.1 0.7v0.1c0 0.3-0.1 0.7-0.2 1q-0.1 0.2-0.1 0.2c-0.3 0-0.5 0-0.6-0.1-0.1 0-0.2-0.1-0.4-0.3-0.3-0.2-0.5-0.2-0.6-0.2q-0.2 0-0.3 0.1-0.2 0-0.4 0.2-0.4 0.2-1 0.7c-0.8 0.6-1.8 1.3-3.1 2.1-2.5 1.6-5.6 3-8.7 2.7-2.9-0.3-6.9-1.6-10.8-2.9q-1-0.3-1.9-0.6c-3.2-1-6.3-2-8.6-2.1-1.4-0.1-3 0.2-4.6 0.7-1.3 0.5-2.7 1-4.2 1.6q-0.5 0.2-0.9 0.4c-3.6 1.4-7.5 2.8-11.3 2.7-2.4-0.1-8.1-1.1-13.4-2.3-2.7-0.6-5.3-1.2-7.3-1.8q-1.5-0.4-2.5-0.7-1.1-0.4-1.3-0.5c-0.9-0.6-1.6-1.3-2-2.1-0.5-0.7-0.7-1.4-0.7-1.8 0.1-0.1 0.1-0.4 1-0.6q1.1-0.3 3.4-0.3 0.4 0 1.2 0.2 0.9 0.2 2 0.7 0.9 0.3 2.1 0.7c1 0.4 2.2 0.9 3.4 1.3 4.1 1.5 9.3 3 14.5 3 5.3 0 8.8-1.5 11.7-3q0.6-0.3 1.1-0.6c2.5-1.3 4.7-2.5 7.7-2.6 1.7-0.1 3.5 0.3 5.5 0.9 1.9 0.7 3.9 1.6 5.9 2.6q0.8 0.4 1.7 0.9c1.3 0.7 2.6 1.3 3.8 1.8 1.7 0.8 3.3 1.4 4.6 1.5 5 0.2 9.5-2.1 12.6-4z"/>
	<path fill-rule="evenodd" class="s6" d="m238.6 6.6c1.2-0.9 2.6-1.6 3.8-1.9h0.1q1.2-0.3 2.3-0.2c2.6 0.2 4.8 2.4 6.2 6.2 1.4 3.8 2 8.9 1.6 14.4-0.4 5.5-1.9 10.3-4.1 13.7-2.2 3.4-4.8 5.2-7.5 5.1-1.8-0.1-3.5-0.7-5-1.9l2.6-35.4q0 0 0 0zm-2.6 35.4c-4.1-3.1-6.9-9.8-6.3-17.7zm-6.3-17.8l8.9-17.6c-4.6 3.3-8.4 10.1-8.9 17.6zm6.3 17.8l-6.3-17.8"/>
	<path class="s0" d="m249 34.8c-0.9 2.1-1.9 3.9-3 5.2q-0.1 0.1-0.2 0.2c-0.8 1-1.7 1.7-2.6 2.1q-0.6 0.2-1.1 0.3-0.5 0.1-1 0.1c-1.4-0.1-2.7-1-3.7-2.4q-0.1 0-0.1-0.1-0.1 0-0.1-0.1c-1.1-1.5-2.1-3.7-2.7-6.1q-0.2-0.8-0.3-1.6-0.2-0.8-0.3-1.6 0-0.2-0.1-0.4-0.1-0.9-0.1-1.7-0.1-0.9-0.1-1.8-0.1-1.6 0-3.2c0.7-9.1 6.1-17.9 11-17.6 4.8 0.4 7.3 9.8 6.7 18.9-0.3 3.4-1.1 6.9-2.3 9.8z"/>
</svg>