<svg width="214" height="33" viewBox="0 0 214 33" fill="none" xmlns="http://www.w3.org/2000/svg">
<g clip-path="url(#clip0_543_1282)">
<path d="M0 25.8348V4.6582H7.99712C9.69576 4.6582 11.3135 4.82323 12.8612 5.15328C14.4088 5.48334 15.7678 6.05294 16.9487 6.85678C18.1297 7.66595 19.0734 8.73596 19.7798 10.0721C20.4862 11.4083 20.8421 13.0905 20.8421 15.1294C20.8421 16.982 20.5024 18.5896 19.8283 19.9471C19.1489 21.3046 18.2483 22.4172 17.1159 23.2796C15.9835 24.1473 14.6839 24.7914 13.2063 25.2067C11.7341 25.6272 10.1973 25.8348 8.60108 25.8348H0ZM6.94018 10.695V19.6969H8.27214C9.97078 19.6969 11.2704 19.3349 12.1817 18.6109C13.0931 17.8869 13.546 16.6998 13.546 15.0496C13.546 13.6761 13.0931 12.6114 12.1817 11.8448C11.2704 11.0783 10.0625 10.695 8.54716 10.695H6.94018Z" fill="white"/>
<path d="M29.3355 10.0771H22.3306V25.8186H29.3355V10.0771Z" fill="white"/>
<path d="M30.6455 17.8868C30.6455 16.87 30.8019 15.8692 31.1147 14.895C31.4274 13.9155 31.8858 13.0371 32.4951 12.2599C33.0991 11.4827 33.8595 10.8545 34.7708 10.3754C35.6821 9.89629 36.7337 9.65674 37.9254 9.65674C38.772 9.65674 39.6079 9.81644 40.4276 10.1358C41.2472 10.4553 41.9159 10.9663 42.4444 11.6637H42.536V10.0773H49.1149V24.2057C49.1149 25.9198 48.8291 27.3465 48.2683 28.4857C47.7021 29.625 46.9471 30.5246 46.0088 31.1954C45.0705 31.8608 44.0028 32.3346 42.811 32.6008C41.6193 32.8723 40.406 33.0053 39.1711 33.0053C37.6558 33.0053 36.1405 32.8084 34.6252 32.4198C33.1099 32.0312 31.7833 31.4562 30.6563 30.7003L33.7192 26.1221C34.485 26.7024 35.2939 27.1229 36.1459 27.3944C36.9925 27.6659 37.8014 27.799 38.5725 27.799C39.0794 27.799 39.5594 27.7351 40.0123 27.6021C40.4653 27.4743 40.8643 27.2826 41.2095 27.0324C41.5546 26.7822 41.8242 26.4735 42.0291 26.1062C42.2287 25.7388 42.3311 25.313 42.3311 24.8339V24.1471H42.2394C41.8566 24.589 41.285 24.9776 40.5246 25.313C39.7643 25.6537 38.9015 25.824 37.9308 25.824C36.6959 25.824 35.6282 25.6111 34.7169 25.1799C33.8055 24.7487 33.0506 24.1738 32.4412 23.4444C31.8373 22.7151 31.3843 21.874 31.0931 20.9158C30.8019 19.9576 30.6509 18.9515 30.6509 17.8921L30.6455 17.8868ZM37.1327 17.8868C37.1327 18.6427 37.3538 19.2762 37.8014 19.7872C38.2436 20.2983 38.8907 20.5485 39.7427 20.5485C40.5947 20.5485 41.231 20.2876 41.7271 19.7713C42.2233 19.2549 42.4713 18.6267 42.4713 17.8868C42.4713 17.1894 42.2233 16.5825 41.7271 16.0608C41.231 15.5445 40.5678 15.2836 39.7427 15.2836C38.9176 15.2836 38.249 15.5445 37.8014 16.0608C37.3538 16.5825 37.1327 17.1894 37.1327 17.8868Z" fill="white"/>
<path d="M58.3418 10.0771H51.3369V25.8186H58.3418V10.0771Z" fill="white"/>
<path d="M68.7923 26.2338C66.6515 26.2338 65.0661 25.7813 64.0307 24.871C63.0007 23.9607 62.483 22.55 62.483 20.6336V15.0067H60.2397V10.0665H62.4507V6.53711H69.2399V10.0665H72.6965V15.0067H69.2399V19.1962C69.2399 19.9522 69.407 20.4685 69.7414 20.74C70.0757 21.0115 70.5341 21.1446 71.1219 21.1446C71.343 21.1446 71.5748 21.1233 71.8175 21.0861C72.0602 21.0488 72.2543 21.0062 72.3945 20.9636V25.6908C72.0332 25.8505 71.5209 25.9783 70.863 26.0795C70.2051 26.1806 69.5149 26.2285 68.7869 26.2285L68.7923 26.2338Z" fill="white"/>
<path d="M83.6165 15.8211C83.6165 15.342 83.4493 14.9906 83.115 14.7564C82.7806 14.5275 82.3438 14.4104 81.7938 14.4104C81.1467 14.4104 80.5373 14.5435 79.9603 14.8149C79.3833 15.0864 78.8711 15.4005 78.4289 15.7572L74.9399 12.3449C75.9106 11.4292 77.0646 10.7212 78.3965 10.2208C79.7285 9.72042 81.1036 9.47021 82.5218 9.47021C84.0371 9.47021 85.2882 9.67783 86.2804 10.0984C87.2726 10.5189 88.0545 11.0939 88.6315 11.8338C89.2085 12.5738 89.613 13.4309 89.8448 14.405C90.0767 15.3846 90.1954 16.4226 90.1954 17.5193V25.8078H83.8591V24.5515H83.7998C83.3954 25.1477 82.8184 25.5789 82.0742 25.8398C81.3246 26.1006 80.5967 26.2284 79.8902 26.2284C79.2647 26.2284 78.623 26.1379 77.9651 25.9569C77.3072 25.7759 76.714 25.4884 76.1748 25.0892C75.6409 24.6899 75.1987 24.1736 74.8536 23.5347C74.5085 22.8959 74.3359 22.1081 74.3359 21.1711C74.3359 20.0745 74.6217 19.1802 75.1987 18.4934C75.7757 17.8067 76.5091 17.2691 77.3989 16.8751C78.2887 16.4865 79.2809 16.2203 80.3864 16.0819C81.4864 15.9435 82.5649 15.8743 83.6165 15.8743V15.8158V15.8211ZM83.6758 19.292C82.6458 19.292 81.8154 19.4038 81.1898 19.622C80.5643 19.8403 80.2515 20.2502 80.2515 20.8517C80.2515 21.07 80.3001 21.2563 80.4025 21.4054C80.505 21.5544 80.6344 21.6822 80.7962 21.778C80.958 21.8792 81.1359 21.9537 81.3246 22.0016C81.5188 22.0495 81.6913 22.0761 81.8531 22.0761C82.5218 22.0761 83.0557 21.8685 83.4601 21.448C83.8645 21.0274 84.0641 20.4897 84.0641 19.8296V19.292H83.6704H83.6758Z" fill="white"/>
<path d="M92.2822 3.18896H99.4381V25.8136H92.2822V3.18896Z" fill="white"/>
<path d="M131.508 18.0624C131.508 18.3233 131.508 18.5841 131.491 18.8556C131.475 19.1271 131.465 19.3507 131.448 19.5264H120.717C120.739 19.8085 120.836 20.0587 121.003 20.277C121.176 20.4953 121.386 20.6869 121.639 20.8466C121.893 21.0063 122.173 21.1287 122.486 21.2033C122.799 21.2831 123.117 21.3204 123.44 21.3204C124.088 21.3204 124.627 21.2033 125.064 20.9744C125.5 20.7455 125.824 20.4899 126.05 20.2131L131.022 22.6938C130.316 23.8331 129.291 24.7274 127.949 25.3875C126.606 26.0476 125.042 26.3777 123.262 26.3777C122.108 26.3777 120.987 26.1967 119.898 25.84C118.808 25.4833 117.843 24.9457 117.002 24.2376C116.161 23.5296 115.492 22.6459 114.985 21.5919C114.478 20.5325 114.225 19.3081 114.225 17.9134C114.225 16.6145 114.456 15.4433 114.92 14.3946C115.384 13.3459 116.015 12.4569 116.813 11.7329C117.611 11.0036 118.549 10.4393 119.633 10.04C120.712 9.64077 121.871 9.43848 123.106 9.43848C124.357 9.43848 125.5 9.65141 126.53 10.0826C127.56 10.5138 128.445 11.11 129.183 11.8766C129.922 12.6432 130.494 13.5588 130.898 14.6129C131.303 15.6722 131.508 16.8168 131.508 18.0518V18.0624ZM125.473 15.8213C125.473 15.2623 125.263 14.8045 124.853 14.4425C124.438 14.0858 123.877 13.9048 123.171 13.9048C122.405 13.9048 121.806 14.1125 121.38 14.533C120.954 14.9536 120.712 15.3794 120.653 15.8213H125.473Z" fill="#03A64A"/>
<path d="M142.416 26.3777C141.063 26.3777 139.817 26.1807 138.685 25.7814C137.552 25.3822 136.571 24.8126 135.746 24.0779C134.915 23.338 134.268 22.4543 133.805 21.4162C133.341 20.3781 133.109 19.2123 133.104 17.9134C133.104 16.6358 133.341 15.4753 133.815 14.4265C134.29 13.3778 134.953 12.4835 135.8 11.7488C136.646 11.0089 137.644 10.4393 138.787 10.04C139.93 9.64077 141.165 9.43848 142.503 9.43848C143.047 9.43848 143.597 9.48106 144.153 9.57156C144.708 9.66206 145.242 9.7845 145.76 9.9442C146.277 10.1039 146.752 10.2849 147.183 10.4819C147.62 10.6788 147.987 10.9024 148.289 11.142L144.805 16.1087C144.563 15.8373 144.244 15.6296 143.851 15.4859C143.457 15.3422 143.08 15.2676 142.713 15.2676C142.368 15.2676 142.034 15.3209 141.715 15.4327C141.392 15.5445 141.106 15.7148 140.853 15.9437C140.599 16.1726 140.394 16.4548 140.232 16.7795C140.071 17.1096 139.99 17.4928 139.99 17.9294C139.99 18.3659 140.071 18.7545 140.232 19.0792C140.394 19.4093 140.599 19.6754 140.853 19.8884C141.106 20.096 141.392 20.2557 141.715 20.3675C142.039 20.4793 142.373 20.5325 142.718 20.5325C143.123 20.5325 143.516 20.458 143.899 20.3089C144.282 20.1599 144.595 19.9523 144.838 19.6967L148.354 24.5251C147.685 25.0415 146.822 25.478 145.76 25.8347C144.697 26.1913 143.581 26.3723 142.411 26.3723L142.416 26.3777Z" fill="#03A64A"/>
<path d="M166.683 25.7708H159.861V24.0353H159.802C159.398 24.6156 158.799 25.116 158.001 25.5472C157.203 25.9784 156.286 26.1913 155.256 26.1913C154.124 26.1913 153.196 25.9997 152.468 25.611C151.74 25.2224 151.158 24.7114 150.726 24.0832C150.29 23.4551 149.988 22.747 149.815 21.9592C149.642 21.1713 149.556 20.3888 149.556 19.6115V10.0347H156.556V18.3552C156.556 19.1537 156.685 19.7127 156.944 20.0321C157.197 20.3515 157.58 20.5112 158.093 20.5112C158.562 20.5112 158.945 20.3249 159.241 19.9576C159.538 19.5902 159.683 19.0526 159.683 18.3552V10.0347H166.683V25.7761V25.7708Z" fill="#03A64A"/>
<path d="M168.997 10.0294H175.818V11.7595H175.877C176.282 11.1793 176.88 10.6788 177.673 10.2477C178.471 9.81645 179.383 9.60352 180.407 9.60352C181.513 9.60352 182.435 9.80048 183.174 10.1997C183.907 10.599 184.495 11.11 184.926 11.7382C185.357 12.3664 185.659 13.0691 185.832 13.8463C186.005 14.6235 186.091 15.4007 186.091 16.1833V25.7602H179.091V17.3811C179.091 16.5825 178.962 16.0236 178.709 15.7042C178.455 15.3848 178.078 15.2251 177.571 15.2251C177.107 15.2251 176.729 15.4114 176.433 15.7787C176.142 16.146 175.996 16.6837 175.996 17.3811V25.7602H168.997V10.0187V10.0294Z" fill="#03A64A"/>
<path d="M195.193 10.0186H188.188V25.76H195.193V10.0186Z" fill="#03A64A"/>
<path d="M206.507 15.7572C206.507 15.2781 206.339 14.9267 206.005 14.6978C205.671 14.4689 205.234 14.3518 204.689 14.3518C204.042 14.3518 203.433 14.4849 202.856 14.7564C202.279 15.0278 201.772 15.3419 201.324 15.6986L197.835 12.2863C198.806 11.3706 199.955 10.6573 201.292 10.1622C202.624 9.66182 203.999 9.41162 205.412 9.41162C206.927 9.41162 208.178 9.61924 209.171 10.0398C210.163 10.4603 210.945 11.0353 211.522 11.7752C212.099 12.5152 212.503 13.3723 212.735 14.3464C212.967 15.326 213.085 16.364 213.085 17.4607V25.7493H206.755V24.4929H206.695C206.291 25.0891 205.714 25.5203 204.97 25.7812C204.22 26.042 203.492 26.1698 202.786 26.1698C202.16 26.1698 201.519 26.0793 200.861 25.8983C200.203 25.7173 199.61 25.4298 199.07 25.0306C198.536 24.6313 198.094 24.115 197.749 23.4761C197.404 22.8373 197.231 22.0495 197.231 21.1125C197.231 20.0159 197.517 19.1216 198.094 18.4349C198.671 17.7481 199.399 17.2051 200.289 16.8165C201.179 16.4279 202.171 16.1617 203.276 16.0233C204.377 15.8849 205.455 15.8104 206.507 15.8104V15.7518V15.7572ZM206.566 19.2334C205.536 19.2334 204.705 19.3452 204.08 19.5634C203.454 19.7817 203.142 20.1916 203.142 20.7931C203.142 21.0114 203.19 21.1977 203.293 21.3468C203.395 21.4958 203.525 21.6236 203.686 21.7194C203.848 21.8206 204.026 21.8951 204.215 21.943C204.409 21.9909 204.581 22.0175 204.743 22.0175C205.412 22.0175 205.946 21.8099 206.35 21.3894C206.755 20.9688 206.954 20.4311 206.954 19.771V19.2334H206.561H206.566Z" fill="#03A64A"/>
<path d="M29.1683 2.22523C28.9742 1.79403 28.7153 1.42139 28.381 1.10199C28.0466 0.782581 27.6692 0.527056 27.2432 0.340736C26.8171 0.149092 26.3642 0.0585938 25.8789 0.0585938H22.3306V7.09086H25.8789C26.3642 7.09086 26.8171 7.00036 27.2432 6.81936C27.6692 6.63837 28.0466 6.39349 28.381 6.08473C28.7153 5.77597 28.9742 5.40865 29.1683 4.97745C29.3624 4.54625 29.4541 4.08311 29.4541 3.58803C29.4541 3.09295 29.357 2.65643 29.1683 2.22523Z" fill="white"/>
<path d="M58.1693 2.22523C57.9751 1.79403 57.7163 1.42139 57.382 1.10199C57.0476 0.782581 56.6701 0.527056 56.2441 0.340736C55.8181 0.149092 55.3651 0.0585938 54.8798 0.0585938H51.3315V7.09086H54.8798C55.3651 7.09086 55.8181 7.00036 56.2441 6.81936C56.6701 6.63837 57.0476 6.39349 57.382 6.08473C57.7163 5.77597 57.9751 5.40865 58.1693 4.97745C58.3634 4.54625 58.4551 4.08311 58.4551 3.58803C58.4551 3.09295 58.358 2.65643 58.1693 2.22523Z" fill="white"/>
<path d="M195.016 2.16664C194.821 1.73544 194.563 1.3628 194.228 1.04339C193.894 0.723988 193.516 0.468463 193.09 0.282142C192.664 0.0958219 192.211 0 191.726 0V7.03226C192.211 7.03226 192.67 6.94176 193.09 6.76077C193.516 6.57977 193.894 6.33489 194.228 6.02613C194.563 5.71737 194.821 5.35006 195.016 4.91886C195.21 4.48766 195.301 4.02452 195.301 3.52944C195.301 3.05033 195.204 2.59784 195.016 2.16664Z" fill="#03A64A"/>
<path d="M191.726 0H188.178V7.03226H191.726V0Z" fill="#03A64A"/>
<path d="M104.415 20.7404H101.741V13.8944H104.415C105.51 13.8944 106.394 13.016 106.394 11.9407C106.394 10.8654 105.505 9.98701 104.415 9.98701H101.741V3.13574H104.415C109.333 3.13574 113.335 7.08573 113.335 11.9407C113.335 16.7957 109.333 20.7457 104.415 20.7457V20.7404Z" fill="#03A64A"/>
</g>
<defs>
<clipPath id="clip0_543_1282">
<rect width="213.086" height="33" fill="white"/>
</clipPath>
</defs>
</svg>
