<svg width="31" height="23" viewBox="0 0 31 23" fill="none" xmlns="http://www.w3.org/2000/svg">
<path d="M24.2106 12.1799H26.3718C28.4283 12.1799 30.1 10.4977 30.1 8.43067V3.98278C30.1 1.9157 28.4283 0.233496 26.3718 0.233496H4.31574C2.25918 0.233496 0.5875 1.9157 0.5875 3.98278V8.43067C0.5875 10.4977 2.25918 12.1799 4.31574 12.1799H5.7276C6.00159 12.1799 6.22197 11.9575 6.22197 11.6833C6.22197 11.4091 6.00159 11.1866 5.7276 11.1866H4.31574C2.80585 11.1866 1.57625 9.95073 1.57625 8.43067V3.98278C1.57625 2.46272 2.80585 1.22682 4.31574 1.22682H26.3718C27.8817 1.22682 29.1113 2.46272 29.1113 3.98278V8.43067C29.1113 9.95073 27.8817 11.1866 26.3718 11.1866H24.2106C23.9366 11.1866 23.7162 11.4091 23.7162 11.6833C23.7162 11.9575 23.9366 12.1799 24.2106 12.1799Z" fill="#43525D" stroke="#43525D" stroke-width="0.2"/>
<path d="M9.48115 8.21162L9.64277 8.33807V8.13286V4.27996C9.64277 4.00579 9.42239 3.7833 9.1484 3.7833H5.31771C5.04372 3.7833 4.82334 4.00579 4.82334 4.27996V8.13286C4.82334 8.40703 5.04372 8.62952 5.31771 8.62952H7.471H7.47231C7.51341 8.62952 7.54745 8.61264 7.57122 8.59707C7.59576 8.58099 7.61866 8.56012 7.63937 8.53899C7.67621 8.50141 7.71723 8.45127 7.75969 8.39939C7.76446 8.39355 7.76926 8.38769 7.77407 8.38182C7.87262 8.26159 7.99033 8.12203 8.13915 8.01463C8.28606 7.90861 8.46018 7.83629 8.67279 7.84735C8.88686 7.85848 9.15293 7.95482 9.48115 8.21162ZM8.65271 4.77662V7.6362H5.81077V4.77662H8.65271Z" fill="#43525D" stroke="#43525D" stroke-width="0.2"/>
<path d="M12.6121 5.40504H25.5016C25.7756 5.40504 25.996 5.18255 25.996 4.90838C25.996 4.63421 25.7756 4.41172 25.5016 4.41172H12.6121C12.3382 4.41172 12.1178 4.63421 12.1178 4.90838C12.1178 5.18255 12.3382 5.40504 12.6121 5.40504Z" fill="#43525D" stroke="#43525D" stroke-width="0.2"/>
<path d="M12.6121 7.76344H25.5016C25.7756 7.76344 25.996 7.54095 25.996 7.26678C25.996 6.99261 25.7756 6.77012 25.5016 6.77012H12.6121C12.3382 6.77012 12.1178 6.99261 12.1178 7.26678C12.1178 7.54095 12.3382 7.76344 12.6121 7.76344Z" fill="#43525D" stroke="#43525D" stroke-width="0.2"/>
<path d="M11.8955 16.9393L7.16812 9.80964L7.16807 9.80956C6.89984 9.40418 6.80383 8.91726 6.89833 8.44055L11.8955 16.9393ZM11.8955 16.9393L9.88718 16.2718L9.88708 16.2718C9.43062 16.1206 8.94295 16.157 8.51431 16.374C8.08576 16.5909 7.76548 16.9635 7.61524 17.421C7.30408 18.367 7.81552 19.3898 8.74165 19.6991L16.2357 22.5116C16.2359 22.5117 16.2362 22.5118 16.2364 22.5119C16.2937 22.5341 16.3532 22.5414 16.4094 22.5391C16.9403 22.6919 17.483 22.767 18.0205 22.767H18.0218C19.1831 22.767 20.3268 22.4171 21.3136 21.7393C23.9513 19.9288 24.6229 16.2389 22.8166 13.5163C22.8166 13.5163 22.8166 13.5163 22.8166 13.5163L20.7896 10.4581L11.8955 16.9393ZM7.67152 7.27954L7.67171 7.27941C8.07494 7.0095 8.55947 6.9128 9.03392 7.00794C9.50997 7.10315 9.91918 7.38057 10.1887 7.78577L10.1888 7.78588L12.7973 11.7195L17.4144 9.49242L17.4165 9.49143L17.4165 9.49145C18.6364 8.93697 20.0525 9.34479 20.7895 10.4581L7.67152 7.27954ZM7.67152 7.27954C7.26852 7.5507 6.99291 7.96218 6.89834 8.44049L7.67152 7.27954ZM8.85788 7.88346L8.83816 7.98149C8.62115 7.93784 8.40252 7.98133 8.21828 8.10526L8.21791 8.10551L8.21791 8.10551C8.0341 8.22798 7.90971 8.41639 7.86615 8.63424L7.76809 8.61464M8.85788 7.88346L12.8347 12.8008L17.8302 10.3924C18.5988 10.0445 19.4959 10.3029 19.9642 11.0089C19.9642 11.0089 19.9642 11.0089 19.9643 11.0089L21.9913 14.0671L21.9913 14.0671C23.5005 16.3428 22.9413 19.4171 20.7534 20.9199M8.85788 7.88346C8.61468 7.83454 8.36885 7.88346 8.16247 8.02229C7.95608 8.1598 7.81673 8.37135 7.76809 8.61464M8.85788 7.88346L7.76809 8.61464M8.85788 7.88346L8.83805 7.98147C9.05419 8.02519 9.24143 8.15009 9.36329 8.33512L9.36346 8.33537L12.2095 12.6286L12.2096 12.6287M8.85788 7.88346L12.2096 12.6287M7.76809 8.61464L7.86617 8.63414C7.82267 8.85289 7.86605 9.07321 7.98939 9.25871L7.98947 9.25882L13.5119 17.5885C13.5119 17.5886 13.5119 17.5886 13.5119 17.5886C13.6288 17.7641 13.6222 17.9957 13.4938 18.1646C13.3659 18.3328 13.1467 18.4032 12.9448 18.3351C12.9447 18.3351 12.9446 18.335 12.9444 18.335L9.57434 17.2153L9.57425 17.2152C9.36965 17.147 9.15014 17.1634 8.95692 17.2612C8.76369 17.3589 8.61994 17.5258 8.55196 17.7333L8.55191 17.7334C8.41133 18.16 8.64358 18.6216 9.06674 18.7615L9.0705 18.7627L9.07047 18.7628L16.4401 21.5278H16.5285V21.5402C16.5402 21.5428 16.5518 21.5459 16.5633 21.5494L16.5636 21.5495C17.9922 21.9965 19.5194 21.7673 20.7534 20.9199M20.7534 20.9199L20.81 21.0024M20.7534 20.9199L20.81 21.0024M20.81 21.0024C23.0448 19.4673 23.6127 16.331 22.0747 14.0119L16.5337 21.6449C17.9916 22.1011 19.5507 21.8671 20.81 21.0024ZM12.2096 12.6287C12.346 12.8336 12.6114 12.9089 12.8345 12.8009L12.2096 12.6287Z" fill="#43525D" stroke="#43525D" stroke-width="0.2"/>
</svg>
