<svg width="59" height="56" viewBox="0 0 59 56" fill="none" xmlns="http://www.w3.org/2000/svg">
<g clip-path="url(#clip0_235_1637)">
<path d="M29.6156 54.9052H3.29596C2.23085 54.9052 1.26199 54.4134 0.635334 53.5536C0.00867544 52.6939 -0.162426 51.6203 0.162667 50.6087L1.98276 44.9221C2.4212 43.5534 3.68094 42.6338 5.11605 42.6338H28.6147C28.9697 42.6338 29.2563 42.9204 29.2563 43.2754C29.2563 43.6304 28.9697 43.917 28.6147 43.917H5.11605C4.23915 43.917 3.47134 44.4773 3.20399 45.3135L1.3839 51.0001C1.185 51.6182 1.2898 52.2726 1.67264 52.7966C2.05547 53.3205 2.64577 53.6221 3.29596 53.6221H29.6156C29.9707 53.6221 30.2572 53.9086 30.2572 54.2637C30.2572 54.6187 29.9707 54.9052 29.6156 54.9052Z" fill="#43525D"/>
<path d="M46.3151 22.8196H5.116C3.70442 22.8196 2.4896 22.2358 2.02121 21.3311L0.201117 17.8045C-0.087616 17.2464 -0.0640896 16.6411 0.26528 16.1001C0.774307 15.266 1.96346 14.7271 3.29591 14.7271H48.1373C49.4697 14.7271 50.6589 15.266 51.1679 16.1001C51.4973 16.6411 51.5208 17.2464 51.2321 17.8045L49.412 21.3311C48.9436 22.2358 47.7309 22.8218 46.3193 22.8218L46.3151 22.8196ZM3.29377 16.0081C2.28214 16.0081 1.58276 16.4016 1.36033 16.7652C1.26622 16.9191 1.25981 17.0582 1.34108 17.2143L3.16117 20.7409C3.36435 21.1365 4.10223 21.5364 5.11386 21.5364H46.3129C47.3267 21.5364 48.0624 21.1365 48.2656 20.7409L50.0857 17.2143C50.167 17.0582 50.1606 16.9191 50.0665 16.7652C49.844 16.3995 49.1446 16.0081 48.133 16.0081H3.29377Z" fill="#43525D"/>
<path d="M45.2821 11.6132C45.1816 11.6132 45.0789 11.5896 44.9827 11.5383L25.7124 1.36698L6.44426 11.5383C6.132 11.7051 5.74275 11.5832 5.57806 11.271C5.41338 10.9587 5.53315 10.5695 5.84541 10.4048L25.413 0.0752475C25.6012 -0.0231294 25.8258 -0.0231294 26.0118 0.0752475L45.5794 10.4048C45.8917 10.5695 46.0136 10.9587 45.8468 11.271C45.7313 11.4891 45.5088 11.6132 45.28 11.6132H45.2821Z" fill="#43525D"/>
<path d="M13.964 43.9169H8.03103C7.676 43.9169 7.3894 43.6303 7.3894 43.2753V22.1777C7.3894 21.8227 7.676 21.5361 8.03103 21.5361H13.964C14.319 21.5361 14.6056 21.8227 14.6056 22.1777V43.2753C14.6056 43.6303 14.319 43.9169 13.964 43.9169ZM8.67053 42.6337H13.3202V22.8193H8.67053V42.6337Z" fill="#43525D"/>
<path d="M37.4627 32.1993C37.1076 32.1993 36.821 31.9128 36.821 31.5577V22.1777C36.821 21.8227 37.1076 21.5361 37.4627 21.5361H43.3956C43.7506 21.5361 44.0372 21.8227 44.0372 22.1777V29.5517C44.0372 29.9067 43.7506 30.1933 43.3956 30.1933C43.0406 30.1933 42.754 29.9067 42.754 29.5517V22.8193H38.1043V31.5577C38.1043 31.9128 37.8177 32.1993 37.4627 32.1993Z" fill="#43525D"/>
<path d="M25.5112 38.9042C25.2481 38.9042 24.9787 38.8829 24.707 38.8379C23.9136 38.7075 23.1778 38.3931 22.579 37.929C22.2988 37.713 22.2475 37.3088 22.4635 37.0287C22.6816 36.7485 23.0837 36.6972 23.3639 36.9132C23.7959 37.2468 24.3328 37.4756 24.9166 37.5719C26.4608 37.8264 27.8703 37.0885 28.0606 35.9273C28.251 34.766 27.1538 33.6154 25.6117 33.3609C23.3724 32.9909 21.7983 31.1774 22.1042 29.3189C22.2582 28.3907 22.842 27.5995 23.7489 27.0926C24.6087 26.6114 25.6652 26.4425 26.7239 26.6178C27.5152 26.7483 28.251 27.0627 28.852 27.5267C29.1321 27.7427 29.1835 28.1469 28.9675 28.4271C28.7514 28.7073 28.3472 28.7586 28.067 28.5426C27.6329 28.2068 27.096 27.9801 26.5143 27.8839C25.7401 27.7556 24.9808 27.8732 24.3734 28.2132C23.813 28.5255 23.458 28.9938 23.3682 29.5285C23.1778 30.6898 24.275 31.8404 25.8171 32.0949C28.0563 32.4648 29.6305 34.2784 29.3246 36.1369C29.0552 37.7708 27.4211 38.9042 25.5091 38.9042H25.5112Z" fill="#43525D"/>
<path d="M54.2948 56.0002H39.7683C37.174 56.0002 35.063 53.8893 35.063 51.2952V43.3651C35.063 40.771 37.174 38.6602 39.7683 38.6602H54.2948C56.8891 38.6602 59.0001 40.771 59.0001 43.3651V51.2952C59.0001 53.8893 56.8891 56.0002 54.2948 56.0002ZM39.7683 39.9455C37.8819 39.9455 36.3462 41.481 36.3462 43.3673V51.2973C36.3462 53.1836 37.8819 54.7191 39.7683 54.7191H54.2948C56.1812 54.7191 57.7168 53.1836 57.7168 51.2973V43.3673C57.7168 41.481 56.1812 39.9455 54.2948 39.9455H39.7683Z" fill="#03A64A"/>
<path d="M52.0449 39.9453C51.6898 39.9453 51.4032 39.6588 51.4032 39.3038V37.5372C51.4032 36.2883 50.2932 35.2724 48.9266 35.2724H45.1367C43.7721 35.2724 42.66 36.2883 42.66 37.5372V39.3038C42.66 39.6588 42.3734 39.9453 42.0183 39.9453C41.6633 39.9453 41.3767 39.6588 41.3767 39.3038V37.5372C41.3767 35.5804 43.0621 33.9893 45.1367 33.9893H48.9266C50.999 33.9893 52.6865 35.5804 52.6865 37.5372V39.3038C52.6865 39.6588 52.3999 39.9453 52.0449 39.9453Z" fill="#03A64A"/>
</g>
<defs>
<clipPath id="clip0_235_1637">
<rect width="59" height="56" fill="white"/>
</clipPath>
</defs>
</svg>
