<svg width="60" height="63" viewBox="0 0 60 63" fill="none" xmlns="http://www.w3.org/2000/svg">
<g clip-path="url(#clip0_235_1654)">
<path d="M27.6747 55.376H3.31968C2.24691 55.376 1.27107 54.8799 0.639898 54.0128C0.00872736 53.1456 -0.163606 52.0628 0.163827 51.0425L1.99702 45.307C2.43863 43.9265 3.70743 42.999 5.15288 42.999H34.4215C34.7791 42.999 35.0678 43.2881 35.0678 43.6461C35.0678 44.0042 34.7791 44.2932 34.4215 44.2932H5.15288C4.26967 44.2932 3.49632 44.8584 3.22705 45.7018L1.39386 51.4373C1.19352 52.0607 1.29907 52.7207 1.68467 53.2492C2.07026 53.7776 2.66481 54.0818 3.31968 54.0818H27.6747C28.0323 54.0818 28.3209 54.3708 28.3209 54.7289C28.3209 55.0869 28.0323 55.376 27.6747 55.376Z" fill="#43525D"/>
<path d="M46.6486 23.0142H5.15284C3.73109 23.0142 2.50752 22.4253 2.03576 21.5129L0.202564 17.956C-0.0882487 17.393 -0.0645528 16.7826 0.267189 16.2369C0.779881 15.3956 1.9776 14.8521 3.31964 14.8521H48.4839C49.8259 14.8521 51.0237 15.3956 51.5364 16.2369C51.8681 16.7826 51.8918 17.393 51.601 17.956L49.7678 21.5129C49.296 22.4253 48.0746 23.0164 46.6529 23.0164L46.6486 23.0142ZM3.31749 16.1441C2.29857 16.1441 1.59416 16.541 1.37012 16.9077C1.27534 17.063 1.26888 17.2032 1.35073 17.3607L3.18393 20.9176C3.38858 21.3166 4.13176 21.72 5.15068 21.72H46.6464C47.6675 21.72 48.4085 21.3166 48.6131 20.9176L50.4463 17.3607C50.5282 17.2032 50.5217 17.063 50.427 16.9077C50.2029 16.5388 49.4985 16.1441 48.4796 16.1441H3.31749Z" fill="#43525D"/>
<path d="M45.6081 11.7115C45.5068 11.7115 45.4035 11.6878 45.3065 11.636L25.8975 1.37726L6.49058 11.636C6.17607 11.8043 5.78402 11.6813 5.61815 11.3664C5.45227 11.0515 5.57291 10.6589 5.88742 10.4928L25.5959 0.0744171C25.7855 -0.0248057 26.0116 -0.0248057 26.1991 0.0744171L45.9075 10.4928C46.222 10.6589 46.3448 11.0515 46.1768 11.3664C46.0605 11.5864 45.8364 11.7115 45.6059 11.7115H45.6081Z" fill="#43525D"/>
<path d="M14.0645 44.2929H8.08888C7.73129 44.2929 7.44263 44.0039 7.44263 43.6458V22.3668C7.44263 22.0088 7.73129 21.7197 8.08888 21.7197H14.0645C14.4221 21.7197 14.7108 22.0088 14.7108 22.3668V43.6458C14.7108 44.0039 14.4221 44.2929 14.0645 44.2929ZM8.73297 42.9987H13.4161V23.0139H8.73297V42.9987Z" fill="#43525D"/>
<path d="M37.7324 32.4746C37.3748 32.4746 37.0862 32.1856 37.0862 31.8275V22.3668C37.0862 22.0088 37.3748 21.7197 37.7324 21.7197H43.7081C44.0657 21.7197 44.3543 22.0088 44.3543 22.3668V29.8042C44.3543 30.1623 44.0657 30.4513 43.7081 30.4513C43.3505 30.4513 43.0618 30.1623 43.0618 29.8042V23.0139H38.3787V31.8275C38.3787 32.1856 38.09 32.4746 37.7324 32.4746Z" fill="#43525D"/>
<path d="M25.695 39.237C25.43 39.237 25.1586 39.2155 24.885 39.1702C24.0858 39.0386 23.3448 38.7215 22.7416 38.2534C22.4594 38.0356 22.4077 37.6279 22.6253 37.3453C22.845 37.0628 23.25 37.011 23.5322 37.2288C23.9673 37.5653 24.508 37.7961 25.0961 37.8932C26.6514 38.1499 28.071 37.4057 28.2627 36.2345C28.4544 35.0632 27.3494 33.9027 25.7962 33.646C23.5408 33.2729 21.9553 31.4437 22.2634 29.5693C22.4185 28.6331 23.0066 27.835 23.9199 27.3238C24.7859 26.8385 25.8501 26.6681 26.9164 26.845C27.7134 26.9765 28.4544 27.2936 29.0598 27.7617C29.342 27.9796 29.3937 28.3872 29.1761 28.6698C28.9585 28.9524 28.5514 29.0041 28.2692 28.7863C27.8319 28.4476 27.2912 28.219 26.7053 28.1219C25.9255 27.9925 25.1607 28.1111 24.5489 28.4541C23.9845 28.769 23.627 29.2414 23.5365 29.7807C23.3448 30.9519 24.4498 32.1124 26.003 32.3691C28.2584 32.7422 29.8439 34.5714 29.5358 36.4458C29.2644 38.0938 27.6186 39.237 25.6928 39.237H25.695Z" fill="#43525D"/>
<path d="M45.9677 63.0001C38.0986 63.0001 31.9333 61.2292 31.9333 57.3142C31.9333 53.3992 38.0986 49.687 45.9677 49.687C53.8369 49.687 60.0021 53.3992 60.0021 57.3142C60.0021 61.2292 53.8369 63.0001 45.9677 63.0001ZM45.9677 50.9791C39.0615 50.9791 33.2258 54.2297 33.2258 57.3121C33.2258 60.3944 39.0615 61.7038 45.9677 61.7038C52.874 61.7038 58.7096 60.3944 58.7096 57.3121C58.7096 54.2297 52.8762 50.9791 45.9677 50.9791Z" fill="#03A64A"/>
<path d="M45.9678 47.6529C41.9847 47.6529 38.7449 44.4088 38.7449 40.4205C38.7449 36.4321 41.9847 33.188 45.9678 33.188C49.9508 33.188 53.1907 36.4321 53.1907 40.4205C53.1907 44.4088 49.9508 47.6529 45.9678 47.6529ZM45.9678 34.4844C42.6978 34.4844 40.0374 37.1483 40.0374 40.4226C40.0374 43.697 42.6978 46.3609 45.9678 46.3609C49.2378 46.3609 51.8982 43.697 51.8982 40.4226C51.8982 37.1483 49.2378 34.4844 45.9678 34.4844Z" fill="#03A64A"/>
</g>
<defs>
<clipPath id="clip0_235_1654">
<rect width="60" height="63" fill="white"/>
</clipPath>
</defs>
</svg>
