<svg width="20" height="18" viewBox="0 0 20 18" fill="none" xmlns="http://www.w3.org/2000/svg">
<path fill-rule="evenodd" clip-rule="evenodd" d="M9.98016 0.000384373C9.79483 0.00801594 9.63408 0.126381 9.57702 0.297265L7.48971 6.56011L0.693984 6.5471C0.501698 6.5468 0.331053 6.66666 0.271695 6.84368C0.21234 7.0207 0.277568 7.21463 0.433219 7.32386L5.93976 11.1814L3.82538 17.4377L3.82554 17.4376C3.76572 17.6146 3.83064 17.8085 3.98629 17.9181C4.14179 18.0275 4.35247 18.0273 4.50782 17.9176L9.99893 14.0382L15.492 17.9176V17.9175C15.6474 18.0272 15.858 18.0273 16.0137 17.9179C16.1692 17.8084 16.2341 17.6143 16.1743 17.4374L14.0599 11.1811L19.5665 7.32356L19.5666 7.32371C19.7224 7.21447 19.7877 7.02054 19.7283 6.84338C19.6688 6.66635 19.4983 6.54649 19.3059 6.54694L12.5101 6.55996L10.4205 0.297112C10.3593 0.113655 10.1792 -0.00769871 9.98027 0.000380282L9.98016 0.000384373Z" fill="#03A64A"/>
</svg>
