<svg width="18" height="22" viewBox="0 0 18 22" fill="none" xmlns="http://www.w3.org/2000/svg">
<path d="M8.06078 0.799788C8.0602 0.799788 8.05963 0.799788 8.05906 0.799788C7.15916 0.800678 6.37906 1.50056 6.37906 2.41774L6.37906 3.46175C6.37906 3.46184 6.37906 3.46194 6.37906 3.46203C6.37744 4.40619 6.11038 5.33594 5.60538 6.15197L5.60532 6.15207L6.03055 6.41509C5.80039 6.7872 5.53932 7.17555 5.25419 7.56716C4.39366 8.75499 3.47474 9.53821 2.27928 10.1069C1.72105 10.3734 1.37409 10.9015 1.37409 11.4881V19.1562C1.37409 20.0077 2.1058 20.6999 3.00583 20.6999H12.719C13.7907 20.6999 14.148 19.8777 14.2665 19.3788C15.2834 13.8963 15.8107 11.0445 15.833 10.9064M8.06078 0.799788V1.29979C8.37445 1.30021 8.66751 1.41717 8.8921 1.62965C9.11711 1.84252 9.24078 2.12201 9.24078 2.41774C9.24078 3.23076 9.23971 4.1154 9.23926 4.49061C9.23914 4.59159 9.23906 4.65568 9.23906 4.67153C9.23563 4.76903 9.14803 7.07481 7.74645 8.14402M8.06078 0.799788C8.50136 0.800217 8.91761 0.965491 9.23572 1.26643C9.55522 1.5687 9.74078 1.97742 9.74078 2.41774C9.74078 2.9339 9.74035 3.47885 9.73992 3.90405L9.73906 4.67153V4.68034L9.73875 4.68914C9.7364 4.75579 9.71139 5.39993 9.49935 6.17527C9.29046 6.9391 8.87899 7.90868 8.05017 8.5412M8.06078 0.799788L16.0369 10.0182M7.74645 8.14402C7.39434 8.41376 7.25865 8.86549 7.4098 9.2701M7.74645 8.14402L8.04972 8.54155C8.04987 8.54143 8.05002 8.54132 8.05017 8.5412M7.74645 8.14402L8.05052 8.54094C8.0504 8.54102 8.05029 8.54111 8.05017 8.5412M7.4098 9.2701C7.56095 9.67308 7.96631 9.94444 8.41804 9.94444H14.6375C15.0377 9.94444 15.4414 10.1053 15.6664 10.3539M7.4098 9.2701L7.87818 9.09512C7.87816 9.09506 7.87814 9.095 7.87812 9.09494M7.4098 9.2701L7.87795 9.0945C7.87801 9.09465 7.87806 9.0948 7.87812 9.09494M15.6664 10.3539C15.8124 10.5148 15.8673 10.6968 15.833 10.9064M15.6664 10.3539L16.0371 10.0184L16.0369 10.0182M15.6664 10.3539L16.0366 10.0179C16.0367 10.018 16.0368 10.0181 16.0369 10.0182M15.833 10.9064L16.3264 10.9873C16.3264 10.9871 16.3265 10.9869 16.3265 10.9867C16.3265 10.9866 16.3266 10.9864 16.3266 10.9862L15.833 10.9064ZM16.0369 10.0182C15.6989 9.64497 15.1494 9.44444 14.6375 9.44444H8.41804C8.16149 9.44444 7.95162 9.29031 7.87812 9.09494M7.87812 9.09494C7.80727 8.90507 7.86562 8.68279 8.05017 8.5412M1.8759 9.39816L1.87627 9.39799C2.93823 8.89125 3.75958 8.18102 4.52508 7.12495C4.79802 6.75011 5.04893 6.37744 5.26896 6.02155C5.74841 5.24791 6.00133 4.36438 6.00325 3.46364V3.46258V2.41937C6.00325 1.38905 6.90004 0.501465 8.06078 0.501465C8.61785 0.501465 9.13571 0.707994 9.52108 1.07518L9.52237 1.0764C9.90898 1.44215 10.1149 1.91843 10.1149 2.41937C10.1149 2.67612 10.1149 3.22443 10.1147 3.72012C10.1146 3.96798 10.1144 4.20255 10.1142 4.38088L10.1137 4.60041L10.1135 4.66766L10.1133 4.68814L10.1133 4.69419C10.0993 5.13424 9.96026 7.02668 8.79524 8.30815L8.0349 9.1445H9.16521H14.6375C15.3223 9.1445 15.956 9.4201 16.338 9.84261C16.6436 10.1807 16.7657 10.5953 16.6966 11.0247C16.6705 11.178 16.172 13.8769 15.1233 19.5264L15.1218 19.5345C14.8361 20.7694 13.9235 21.4998 12.7172 21.4998H3.00583C1.59798 21.4998 0.5 20.4224 0.5 19.1562V11.4881C0.5 10.6142 1.01502 9.80812 1.8759 9.39816Z" fill="#03A64A" stroke="#03A64A"/>
</svg>
