<svg width="17" height="21" viewBox="0 0 17 21" fill="none" xmlns="http://www.w3.org/2000/svg">
<g clip-path="url(#clip0_348_3307)">
<path d="M11.9822 20.7255H2.8317C1.27022 20.7255 0 19.5238 0 18.0466V10.8227C0 9.80626 0.600321 8.88778 1.56472 8.42854C2.48543 7.9892 3.20063 7.37535 3.88186 6.43543C4.13267 6.091 4.36244 5.74963 4.56309 5.4251C4.96924 4.76992 5.18283 4.02289 5.18445 3.26208V2.2793C5.18445 1.02404 6.26535 0.00146484 7.59382 0.00146484C8.23621 0.00146484 8.84139 0.24027 9.29446 0.671957C9.74915 1.10211 9.99996 1.6731 9.99996 2.2793C9.99996 2.76304 9.99996 4.34589 9.99834 4.43314C9.9854 4.85411 9.85757 6.79823 8.63427 8.14381H13.7896C14.5517 8.14381 15.2815 8.44844 15.741 8.95667C16.1229 9.37917 16.2831 9.91342 16.1941 10.463C16.1715 10.5977 15.7006 13.1465 14.7103 18.4813C14.7103 18.489 14.7071 18.4982 14.7054 18.5058C14.3899 19.8759 13.3462 20.7255 11.9805 20.7255H11.9822ZM7.59382 1.22458C6.98055 1.22458 6.48056 1.6976 6.48056 2.27777V3.26208C6.47894 4.24026 6.20224 5.20161 5.68121 6.04355C5.46438 6.3941 5.21843 6.75996 4.94982 7.12889C4.13914 8.24791 3.27345 8.98575 2.14724 9.52154C1.62135 9.77259 1.29449 10.2701 1.29449 10.8227V18.0466C1.29449 18.8487 1.98381 19.5008 2.8317 19.5008H11.9822C12.9919 19.5008 13.3284 18.7263 13.4401 18.2563C14.398 13.0914 14.8948 10.4048 14.9158 10.2747C14.9482 10.0772 14.8964 9.90577 14.7588 9.75422C14.5469 9.52001 14.1666 9.36845 13.7896 9.36845H7.93039C7.50482 9.36845 7.12295 9.11281 6.98055 8.73317C6.83816 8.352 6.96599 7.92644 7.29771 7.67232C8.61809 6.66505 8.70061 4.49284 8.70385 4.401C8.70385 4.33058 8.70547 3.24983 8.70547 2.27777C8.70547 1.99916 8.58896 1.73587 8.37699 1.53533C8.16502 1.3348 7.88832 1.22458 7.5922 1.22458H7.59382Z" fill="#43525D"/>
</g>
<defs>
<clipPath id="clip0_348_3307">
<rect width="16.22" height="20.7256" fill="white"/>
</clipPath>
</defs>
</svg>
