<svg width="51" height="37" viewBox="0 0 51 37" fill="none" xmlns="http://www.w3.org/2000/svg">
<path d="M22.8482 30.6071C22.7089 30.6071 22.5694 30.554 22.4629 30.4476C22.25 30.2354 22.25 29.8907 22.4629 29.6781L29.624 22.5243C29.8369 22.3117 30.1819 22.3117 30.3948 22.5243C30.6077 22.7366 30.6077 23.0812 30.3948 23.2939L23.2338 30.4478C23.1273 30.5541 22.9878 30.6071 22.8482 30.6071Z" fill="#03A64A"/>
<path d="M5.91758 13.7015C5.77824 13.7015 5.63871 13.6484 5.53225 13.5421C5.31933 13.3295 5.31933 12.9852 5.53225 12.7725L17.7431 0.579257C17.8452 0.477306 17.9838 0.4198 18.1284 0.4198C18.2731 0.4198 18.4117 0.477124 18.514 0.579257L30.4549 12.5064C30.6676 12.719 30.6676 13.0637 30.4549 13.276C30.2419 13.4886 29.8969 13.4886 29.684 13.276L18.1286 1.73355L6.30291 13.5421C6.19645 13.6484 6.05711 13.7015 5.91758 13.7015Z" fill="#03A64A"/>
<path d="M18.5086 26.6165C18.4359 26.6165 18.362 26.602 18.2911 26.5712C18.0151 26.4511 17.8891 26.1303 18.0093 25.8548C18.0408 25.7828 18.0698 25.7088 18.0967 25.6373C18.9068 23.4426 18.3596 20.9519 16.7011 19.2955C15.0428 17.6398 12.5486 17.0941 10.3465 17.9033C10.2778 17.9293 10.2041 17.9583 10.1321 17.9895C9.85616 18.11 9.53514 17.9839 9.41469 17.7082C9.29442 17.4324 9.42051 17.1119 9.69647 16.9918C9.78567 16.9528 9.8776 16.9167 9.96662 16.8833C12.5686 15.9249 15.5137 16.5707 17.4718 18.5259C19.4298 20.4813 20.0761 23.4221 19.1179 26.0171C19.0834 26.1093 19.0471 26.2011 19.0084 26.29C18.919 26.4948 18.7186 26.6167 18.5084 26.6167L18.5086 26.6165Z" fill="#03A64A"/>
<path d="M18.1239 8.87975C17.3805 8.87975 16.6369 8.77526 15.9128 8.56591C15.6235 8.48228 15.4569 8.18078 15.5407 7.89198C15.6243 7.60355 15.9257 7.43556 16.2158 7.52064C17.4681 7.88201 18.7885 7.88128 20.0353 7.51847C20.3249 7.43448 20.6268 7.59956 20.7113 7.88836C20.7956 8.17679 20.6298 8.47902 20.3409 8.56301C19.6166 8.77417 18.8704 8.87975 18.1239 8.87975Z" fill="#03A64A"/>
<path d="M27.9674 20.4738C27.7309 20.4738 27.5132 20.3189 27.444 20.0809C27.0245 18.6342 27.0245 17.1047 27.444 15.658C27.5278 15.3696 27.8295 15.2012 28.1193 15.2867C28.4083 15.3703 28.5749 15.6722 28.4912 15.9606C28.1289 17.2096 28.1289 18.5293 28.4912 19.7783C28.5749 20.0667 28.4083 20.3686 28.1193 20.4522C28.0686 20.4671 28.0176 20.4738 27.9674 20.4738Z" fill="#03A64A"/>
<path d="M1 13.3695L22.6214 35.5753" stroke="#212427" stroke-linecap="round"/>
<path d="M50.0372 9.35115C50.1451 9.47941 50.2995 9.54526 50.455 9.54526C50.5788 9.54526 50.7034 9.50372 50.8053 9.41791C51.0359 9.22471 51.0658 8.88149 50.8724 8.6511L44.8685 4.99026L38.6066 3.99325C36.2263 3.61447 33.832 3.99379 31.6835 5.09294L28.9328 6.49848C28.6646 6.63527 28.5585 6.96325 28.6957 7.23082C28.8331 7.4984 29.161 7.60471 29.4291 7.4672L32.18 6.06166C34.1218 5.06918 36.2844 4.72614 38.4347 5.06809L44.6972 6.0651L50.0372 9.35115Z" fill="#212427"/>
<path d="M33.6596 21.097C32.3266 21.097 31.1016 20.2562 30.6534 18.9513C30.1015 17.3446 30.9079 15.5956 32.4894 14.97L41.3473 11.4637C41.6269 11.3529 41.9441 11.49 42.0549 11.7692C42.1657 12.0488 42.0288 12.3648 41.749 12.4758L32.8911 15.982C31.8517 16.3935 31.3218 17.5425 31.6844 18.5987C32.0285 19.6004 33.0695 20.186 34.1067 19.9603L46.1406 17.3377C46.4345 17.2735 46.7252 17.4596 46.7892 17.7533C46.8533 18.047 46.6671 18.3372 46.3729 18.4013L34.3389 21.0239C34.1114 21.0732 33.8838 21.0972 33.6594 21.0972L33.6596 21.097Z" fill="#212427"/>
<path d="M45.2179 26.3704C43.8341 26.3704 42.4496 26.118 41.1653 25.6281L36.9147 24.0025C36.6337 23.8951 36.493 23.5805 36.6006 23.2999C36.7083 23.0192 37.023 22.8776 37.3046 22.9864L41.5548 24.6116C42.9724 25.1522 44.5259 25.3723 46.0491 25.248L49.3006 24.9454C49.6001 24.9235 49.8639 25.1428 49.889 25.4425C49.9143 25.7422 49.6912 26.0052 49.3914 26.0303L46.139 26.3328C45.8329 26.3577 45.5253 26.3704 45.2179 26.3704Z" fill="#212427"/>
</svg>
