<svg width="50" height="49" viewBox="0 0 50 49" fill="none" xmlns="http://www.w3.org/2000/svg">
<g clip-path="url(#clip0_1092_2382)">
<path d="M15.5218 48.125H11.1305C9.97279 48.125 9.03271 47.1698 9.03271 45.9967V43.1091C9.03271 42.7438 9.32431 42.4489 9.68554 42.4489C10.0468 42.4489 10.3384 42.7438 10.3384 43.1091V45.9967C10.3384 46.4347 10.7018 46.8044 11.1305 46.8044H15.5218C15.9505 46.8044 16.3139 46.4347 16.3139 45.9967V43.1091C16.3139 42.7438 16.6055 42.4489 16.9667 42.4489C17.328 42.4489 17.6196 42.7438 17.6196 43.1091V45.9967C17.6196 47.1698 16.6795 48.125 15.5218 48.125Z" fill="#212427"/>
<path d="M38.867 48.125H34.4757C33.318 48.125 32.3779 47.1698 32.3779 45.9967V43.1091C32.3779 42.7438 32.6695 42.4489 33.0308 42.4489C33.392 42.4489 33.6836 42.7438 33.6836 43.1091V45.9967C33.6836 46.4347 34.047 46.8044 34.4757 46.8044H38.867C39.2957 46.8044 39.6591 46.4347 39.6591 45.9967V43.1091C39.6591 42.7438 39.9507 42.4489 40.312 42.4489C40.6732 42.4489 40.9648 42.7438 40.9648 43.1091V45.9967C40.9648 47.1698 40.0247 48.125 38.867 48.125Z" fill="#212427"/>
<path d="M44.1246 43.7694H5.87544C2.63524 43.7694 0 41.1041 0 37.827V5.94245C0 2.6653 2.63524 0 5.87544 0H44.1246C47.3648 0 50 2.6653 50 5.94245V37.827C50 41.1041 47.3648 43.7694 44.1246 43.7694ZM5.87544 1.32054C3.35553 1.32054 1.30565 3.3938 1.30565 5.94245V37.827C1.30565 40.3756 3.35553 42.4489 5.87544 42.4489H44.1246C46.6445 42.4489 48.6943 40.3756 48.6943 37.827V5.94245C48.6943 3.3938 46.6445 1.32054 44.1246 1.32054H5.87544Z" fill="#212427"/>
<path d="M10.1494 27.5664C9.78818 27.5664 9.49658 27.2715 9.49658 26.9061V16.8634C9.49658 16.498 9.78818 16.2031 10.1494 16.2031C10.5106 16.2031 10.8022 16.498 10.8022 16.8634V26.9061C10.8022 27.2715 10.5106 27.5664 10.1494 27.5664Z" fill="#212427"/>
<path d="M35.5312 38.1858H15.6984C12.3494 38.1858 9.5705 35.4324 9.50304 32.0496C9.49651 31.6843 9.78158 31.3828 10.1428 31.3762C10.5106 31.3695 10.8022 31.6579 10.8087 32.0232C10.8609 34.6929 13.0566 36.8652 15.6984 36.8652H35.5312C38.2296 36.8652 40.4253 34.6445 40.4253 31.9154V11.8541C40.4253 9.125 38.2296 6.90428 35.5312 6.90428H15.6984C13.0544 6.90428 10.8609 9.07658 10.8087 11.7463C10.8022 12.1116 10.491 12.3823 10.1428 12.3933C9.78158 12.3867 9.49651 12.0852 9.50304 11.7199C9.5705 8.33707 12.3494 5.58374 15.6984 5.58374H35.5312C38.9499 5.58374 41.7309 8.3965 41.7309 11.8541V31.9132C41.7309 35.3708 38.9499 38.1836 35.5312 38.1836V38.1858Z" fill="#212427"/>
<path d="M12.6865 17.5236H9.46588C8.08624 17.5236 6.96338 16.3879 6.96338 14.9926V13.606C6.96338 12.2106 8.08624 11.075 9.46588 11.075H12.6865C13.0477 11.075 13.3393 11.3699 13.3393 11.7352C13.3393 12.1006 13.0477 12.3955 12.6865 12.3955H9.46588C8.80653 12.3955 8.26903 12.9391 8.26903 13.606V14.9926C8.26903 15.6594 8.80653 16.2031 9.46588 16.2031H12.6865C13.0477 16.2031 13.3393 16.498 13.3393 16.8633C13.3393 17.2287 13.0477 17.5236 12.6865 17.5236Z" fill="#212427"/>
<path d="M12.6865 32.6945H9.46588C8.08624 32.6945 6.96338 31.5588 6.96338 30.1635V28.7769C6.96338 27.3815 8.08624 26.2458 9.46588 26.2458H12.6865C13.0477 26.2458 13.3393 26.5408 13.3393 26.9061C13.3393 27.2715 13.0477 27.5664 12.6865 27.5664H9.46588C8.80653 27.5664 8.26903 28.11 8.26903 28.7769V30.1635C8.26903 30.8303 8.80653 31.374 9.46588 31.374H12.6865C13.0477 31.374 13.3393 31.6689 13.3393 32.0342C13.3393 32.3996 13.0477 32.6945 12.6865 32.6945Z" fill="#212427"/>
<path d="M25.6146 27.6611C22.4658 27.6611 19.9023 25.0684 19.9023 21.8837C19.9023 18.699 22.4636 16.1063 25.6146 16.1063C28.7656 16.1063 31.3268 18.699 31.3268 21.8837C31.3268 25.0684 28.7634 27.6611 25.6146 27.6611ZM25.6146 17.4291C23.1861 17.4291 21.208 19.4275 21.208 21.8859C21.208 24.3443 23.1839 26.3427 25.6146 26.3427C28.0453 26.3427 30.0212 24.3443 30.0212 21.8859C30.0212 19.4275 28.0453 17.4291 25.6146 17.4291Z" fill="#03A64A"/>
<path d="M25.6147 30.52C25.2535 30.52 24.9619 30.2251 24.9619 29.8597V27.0007C24.9619 26.6354 25.2535 26.3405 25.6147 26.3405C25.976 26.3405 26.2676 26.6354 26.2676 27.0007V29.8597C26.2676 30.2251 25.976 30.52 25.6147 30.52Z" fill="#03A64A"/>
<path d="M25.6147 17.4268C25.2535 17.4268 24.9619 17.1319 24.9619 16.7666V13.9076C24.9619 13.5422 25.2535 13.2473 25.6147 13.2473C25.976 13.2473 26.2676 13.5422 26.2676 13.9076V16.7666C26.2676 17.1319 25.976 17.4268 25.6147 17.4268Z" fill="#03A64A"/>
<path d="M32.4409 26.532C32.3299 26.532 32.2168 26.5034 32.1145 26.444L29.6686 25.0134C29.3574 24.8307 29.2508 24.4257 29.4292 24.111C29.6098 23.7963 30.0102 23.6884 30.3214 23.8689L32.7673 25.2995C33.0785 25.4822 33.1851 25.8871 33.0067 26.2019C32.8848 26.4131 32.6672 26.532 32.4409 26.532Z" fill="#03A64A"/>
<path d="M21.2319 19.9887C21.1209 19.9887 21.0078 19.96 20.9055 19.9006L18.4596 18.47C18.1484 18.2874 18.0418 17.8824 18.2202 17.5677C18.4008 17.2529 18.8012 17.1451 19.1124 17.3256L21.5583 18.7562C21.8695 18.9388 21.9761 19.3438 21.7977 19.6585C21.6758 19.8698 21.4582 19.9887 21.2319 19.9887Z" fill="#03A64A"/>
<path d="M29.995 19.9887C29.7686 19.9887 29.551 19.8698 29.4292 19.6585C29.2486 19.3438 29.3552 18.9388 29.6685 18.7561L32.1145 17.3256C32.4256 17.1429 32.826 17.2507 33.0067 17.5677C33.1873 17.8824 33.0806 18.2874 32.7673 18.47L30.3214 19.9006C30.2191 19.96 30.1059 19.9887 29.995 19.9887Z" fill="#03A64A"/>
<path d="M18.786 26.532C18.5597 26.532 18.342 26.4131 18.2202 26.2019C18.0396 25.8871 18.1462 25.4822 18.4596 25.2995L20.9055 23.8689C21.2167 23.6862 21.6171 23.7941 21.7977 24.111C21.9783 24.4257 21.8717 24.8307 21.5583 25.0134L19.1124 26.444C19.0101 26.5034 18.8969 26.532 18.786 26.532Z" fill="#03A64A"/>
</g>
<defs>
<clipPath id="clip0_1092_2382">
<rect width="50" height="48.125" fill="white"/>
</clipPath>
</defs>
</svg>
